<?xml version="1.0" encoding="utf-8" standalone="no"?>
<!DOCTYPE svg PUBLIC "-//W3C//DTD SVG 1.1//EN"
  "http://www.w3.org/Graphics/SVG/1.1/DTD/svg11.dtd">
<svg xmlns:xlink="http://www.w3.org/1999/xlink" width="503.28pt" height="325.44pt" viewBox="0 0 503.28 325.44" xmlns="http://www.w3.org/2000/svg" version="1.1">
 <metadata>
  <rdf:RDF xmlns:dc="http://purl.org/dc/elements/1.1/" xmlns:cc="http://creativecommons.org/ns#" xmlns:rdf="http://www.w3.org/1999/02/22-rdf-syntax-ns#">
   <cc:Work>
    <dc:type rdf:resource="http://purl.org/dc/dcmitype/StillImage"/>
    <dc:date>2026-05-28T08:38:23.877636</dc:date>
    <dc:format>image/svg+xml</dc:format>
    <dc:creator>
     <cc:Agent>
      <dc:title>Matplotlib v3.10.9, https://matplotlib.org/</dc:title>
     </cc:Agent>
    </dc:creator>
   </cc:Work>
  </rdf:RDF>
 </metadata>
 <defs>
  <style type="text/css">*{stroke-linejoin: round; stroke-linecap: butt}</style>
 </defs>
 <g id="figure_1">
  <g id="patch_1">
   <path d="M 0 325.44 
L 503.28 325.44 
L 503.28 0 
L 0 0 
z
" style="fill: #fafafa"/>
  </g>
  <g id="axes_1">
   <g id="patch_2">
    <path d="M 7.92 300.96 
L 255.364757 300.96 
L 255.364757 144.880931 
L 7.92 144.880931 
z
" clip-path="url(#pf0ae04d600)" style="fill: #a6cee3; opacity: 0.92; stroke: #fafafa; stroke-width: 2; stroke-linejoin: miter"/>
   </g>
   <g id="patch_3">
    <path d="M 7.92 144.880931 
L 255.364757 144.880931 
L 255.364757 55.8 
L 7.92 55.8 
z
" clip-path="url(#pf0ae04d600)" style="fill: #b2df8a; opacity: 0.92; stroke: #fafafa; stroke-width: 2; stroke-linejoin: miter"/>
   </g>
   <g id="patch_4">
    <path d="M 255.364757 300.96 
L 477.016435 300.96 
L 477.016435 235.32568 
L 255.364757 235.32568 
z
" clip-path="url(#pf0ae04d600)" style="fill: #ffd700; opacity: 0.92; stroke: #fafafa; stroke-width: 2; stroke-linejoin: miter"/>
   </g>
   <g id="patch_5">
    <path d="M 255.364757 235.32568 
L 402.486566 235.32568 
L 402.486566 155.521474 
L 255.364757 155.521474 
z
" clip-path="url(#pf0ae04d600)" style="fill: #fdbf6f; opacity: 0.92; stroke: #fafafa; stroke-width: 2; stroke-linejoin: miter"/>
   </g>
   <g id="patch_6">
    <path d="M 402.486566 235.32568 
L 477.016435 235.32568 
L 477.016435 155.521474 
L 402.486566 155.521474 
z
" clip-path="url(#pf0ae04d600)" style="fill: #999999; opacity: 0.92; stroke: #fafafa; stroke-width: 2; stroke-linejoin: miter"/>
   </g>
   <g id="patch_7">
    <path d="M 255.364757 155.521474 
L 351.739316 155.521474 
L 351.739316 94.617925 
L 255.364757 94.617925 
z
" clip-path="url(#pf0ae04d600)" style="fill: #1f78b4; opacity: 0.92; stroke: #fafafa; stroke-width: 2; stroke-linejoin: miter"/>
   </g>
   <g id="patch_8">
    <path d="M 255.364757 94.617925 
L 351.739316 94.617925 
L 351.739316 55.8 
L 255.364757 55.8 
z
" clip-path="url(#pf0ae04d600)" style="fill: #ff7f00; opacity: 0.92; stroke: #fafafa; stroke-width: 2; stroke-linejoin: miter"/>
   </g>
   <g id="patch_9">
    <path d="M 351.739316 155.521474 
L 416.412358 155.521474 
L 416.412358 108.649405 
L 351.739316 108.649405 
z
" clip-path="url(#pf0ae04d600)" style="fill: #33a02c; opacity: 0.92; stroke: #fafafa; stroke-width: 2; stroke-linejoin: miter"/>
   </g>
   <g id="patch_10">
    <path d="M 416.412358 155.521474 
L 477.016435 155.521474 
L 477.016435 108.649405 
L 416.412358 108.649405 
z
" clip-path="url(#pf0ae04d600)" style="fill: #fb9a99; opacity: 0.92; stroke: #fafafa; stroke-width: 2; stroke-linejoin: miter"/>
   </g>
   <g id="patch_11">
    <path d="M 351.739316 108.649405 
L 447.382978 108.649405 
L 447.382978 81.553619 
L 351.739316 81.553619 
z
" clip-path="url(#pf0ae04d600)" style="fill: #e31a1c; opacity: 0.92; stroke: #fafafa; stroke-width: 2; stroke-linejoin: miter"/>
   </g>
   <g id="patch_12">
    <path d="M 351.739316 81.553619 
L 447.382978 81.553619 
L 447.382978 55.8 
L 351.739316 55.8 
z
" clip-path="url(#pf0ae04d600)" style="fill: #90c850; opacity: 0.92; stroke: #fafafa; stroke-width: 2; stroke-linejoin: miter"/>
   </g>
   <g id="patch_13">
    <path d="M 447.382978 108.649405 
L 477.016435 108.649405 
L 477.016435 87.000127 
L 447.382978 87.000127 
z
" clip-path="url(#pf0ae04d600)" style="fill: #cab2d6; opacity: 0.92; stroke: #fafafa; stroke-width: 2; stroke-linejoin: miter"/>
   </g>
   <g id="patch_14">
    <path d="M 447.382978 87.000127 
L 477.016435 87.000127 
L 477.016435 67.104244 
L 447.382978 67.104244 
z
" clip-path="url(#pf0ae04d600)" style="fill: #b15928; opacity: 0.92; stroke: #fafafa; stroke-width: 2; stroke-linejoin: miter"/>
   </g>
   <g id="patch_15">
    <path d="M 447.382978 67.104244 
L 467.661348 67.104244 
L 467.661348 55.8 
L 447.382978 55.8 
z
" clip-path="url(#pf0ae04d600)" style="fill: #7a3d8f; opacity: 0.92; stroke: #fafafa; stroke-width: 2; stroke-linejoin: miter"/>
   </g>
   <g id="patch_16">
    <path d="M 467.661348 67.104244 
L 477.016435 67.104244 
L 477.016435 55.8 
L 467.661348 55.8 
z
" clip-path="url(#pf0ae04d600)" style="fill: #dda0dd; opacity: 0.92; stroke: #fafafa; stroke-width: 2; stroke-linejoin: miter"/>
   </g>
   <g id="text_1">
    <!-- Compound sub-entry -->
    <g transform="translate(89.460504 216.169715) scale(0.08 -0.08)">
     <defs>
      <path id="DejaVuSans-43" d="M 4122 4306 
L 4122 3641 
Q 3803 3938 3442 4084 
Q 3081 4231 2675 4231 
Q 1875 4231 1450 3742 
Q 1025 3253 1025 2328 
Q 1025 1406 1450 917 
Q 1875 428 2675 428 
Q 3081 428 3442 575 
Q 3803 722 4122 1019 
L 4122 359 
Q 3791 134 3420 21 
Q 3050 -91 2638 -91 
Q 1578 -91 968 557 
Q 359 1206 359 2328 
Q 359 3453 968 4101 
Q 1578 4750 2638 4750 
Q 3056 4750 3426 4639 
Q 3797 4528 4122 4306 
z
" transform="scale(0.015625)"/>
      <path id="DejaVuSans-6f" d="M 1959 3097 
Q 1497 3097 1228 2736 
Q 959 2375 959 1747 
Q 959 1119 1226 758 
Q 1494 397 1959 397 
Q 2419 397 2687 759 
Q 2956 1122 2956 1747 
Q 2956 2369 2687 2733 
Q 2419 3097 1959 3097 
z
M 1959 3584 
Q 2709 3584 3137 3096 
Q 3566 2609 3566 1747 
Q 3566 888 3137 398 
Q 2709 -91 1959 -91 
Q 1206 -91 779 398 
Q 353 888 353 1747 
Q 353 2609 779 3096 
Q 1206 3584 1959 3584 
z
" transform="scale(0.015625)"/>
      <path id="DejaVuSans-6d" d="M 3328 2828 
Q 3544 3216 3844 3400 
Q 4144 3584 4550 3584 
Q 5097 3584 5394 3201 
Q 5691 2819 5691 2113 
L 5691 0 
L 5113 0 
L 5113 2094 
Q 5113 2597 4934 2840 
Q 4756 3084 4391 3084 
Q 3944 3084 3684 2787 
Q 3425 2491 3425 1978 
L 3425 0 
L 2847 0 
L 2847 2094 
Q 2847 2600 2669 2842 
Q 2491 3084 2119 3084 
Q 1678 3084 1418 2786 
Q 1159 2488 1159 1978 
L 1159 0 
L 581 0 
L 581 3500 
L 1159 3500 
L 1159 2956 
Q 1356 3278 1631 3431 
Q 1906 3584 2284 3584 
Q 2666 3584 2933 3390 
Q 3200 3197 3328 2828 
z
" transform="scale(0.015625)"/>
      <path id="DejaVuSans-70" d="M 1159 525 
L 1159 -1331 
L 581 -1331 
L 581 3500 
L 1159 3500 
L 1159 2969 
Q 1341 3281 1617 3432 
Q 1894 3584 2278 3584 
Q 2916 3584 3314 3078 
Q 3713 2572 3713 1747 
Q 3713 922 3314 415 
Q 2916 -91 2278 -91 
Q 1894 -91 1617 61 
Q 1341 213 1159 525 
z
M 3116 1747 
Q 3116 2381 2855 2742 
Q 2594 3103 2138 3103 
Q 1681 3103 1420 2742 
Q 1159 2381 1159 1747 
Q 1159 1113 1420 752 
Q 1681 391 2138 391 
Q 2594 391 2855 752 
Q 3116 1113 3116 1747 
z
" transform="scale(0.015625)"/>
      <path id="DejaVuSans-75" d="M 544 1381 
L 544 3500 
L 1119 3500 
L 1119 1403 
Q 1119 906 1312 657 
Q 1506 409 1894 409 
Q 2359 409 2629 706 
Q 2900 1003 2900 1516 
L 2900 3500 
L 3475 3500 
L 3475 0 
L 2900 0 
L 2900 538 
Q 2691 219 2414 64 
Q 2138 -91 1772 -91 
Q 1169 -91 856 284 
Q 544 659 544 1381 
z
M 1991 3584 
L 1991 3584 
z
" transform="scale(0.015625)"/>
      <path id="DejaVuSans-6e" d="M 3513 2113 
L 3513 0 
L 2938 0 
L 2938 2094 
Q 2938 2591 2744 2837 
Q 2550 3084 2163 3084 
Q 1697 3084 1428 2787 
Q 1159 2491 1159 1978 
L 1159 0 
L 581 0 
L 581 3500 
L 1159 3500 
L 1159 2956 
Q 1366 3272 1645 3428 
Q 1925 3584 2291 3584 
Q 2894 3584 3203 3211 
Q 3513 2838 3513 2113 
z
" transform="scale(0.015625)"/>
      <path id="DejaVuSans-64" d="M 2906 2969 
L 2906 4863 
L 3481 4863 
L 3481 0 
L 2906 0 
L 2906 525 
Q 2725 213 2448 61 
Q 2172 -91 1784 -91 
Q 1150 -91 751 415 
Q 353 922 353 1747 
Q 353 2572 751 3078 
Q 1150 3584 1784 3584 
Q 2172 3584 2448 3432 
Q 2725 3281 2906 2969 
z
M 947 1747 
Q 947 1113 1208 752 
Q 1469 391 1925 391 
Q 2381 391 2643 752 
Q 2906 1113 2906 1747 
Q 2906 2381 2643 2742 
Q 2381 3103 1925 3103 
Q 1469 3103 1208 2742 
Q 947 2381 947 1747 
z
" transform="scale(0.015625)"/>
      <path id="DejaVuSans-20" transform="scale(0.015625)"/>
      <path id="DejaVuSans-73" d="M 2834 3397 
L 2834 2853 
Q 2591 2978 2328 3040 
Q 2066 3103 1784 3103 
Q 1356 3103 1142 2972 
Q 928 2841 928 2578 
Q 928 2378 1081 2264 
Q 1234 2150 1697 2047 
L 1894 2003 
Q 2506 1872 2764 1633 
Q 3022 1394 3022 966 
Q 3022 478 2636 193 
Q 2250 -91 1575 -91 
Q 1294 -91 989 -36 
Q 684 19 347 128 
L 347 722 
Q 666 556 975 473 
Q 1284 391 1588 391 
Q 1994 391 2212 530 
Q 2431 669 2431 922 
Q 2431 1156 2273 1281 
Q 2116 1406 1581 1522 
L 1381 1569 
Q 847 1681 609 1914 
Q 372 2147 372 2553 
Q 372 3047 722 3315 
Q 1072 3584 1716 3584 
Q 2034 3584 2315 3537 
Q 2597 3491 2834 3397 
z
" transform="scale(0.015625)"/>
      <path id="DejaVuSans-62" d="M 3116 1747 
Q 3116 2381 2855 2742 
Q 2594 3103 2138 3103 
Q 1681 3103 1420 2742 
Q 1159 2381 1159 1747 
Q 1159 1113 1420 752 
Q 1681 391 2138 391 
Q 2594 391 2855 752 
Q 3116 1113 3116 1747 
z
M 1159 2969 
Q 1341 3281 1617 3432 
Q 1894 3584 2278 3584 
Q 2916 3584 3314 3078 
Q 3713 2572 3713 1747 
Q 3713 922 3314 415 
Q 2916 -91 2278 -91 
Q 1894 -91 1617 61 
Q 1341 213 1159 525 
L 1159 0 
L 581 0 
L 581 4863 
L 1159 4863 
L 1159 2969 
z
" transform="scale(0.015625)"/>
      <path id="DejaVuSans-2d" d="M 313 2009 
L 1997 2009 
L 1997 1497 
L 313 1497 
L 313 2009 
z
" transform="scale(0.015625)"/>
      <path id="DejaVuSans-65" d="M 3597 1894 
L 3597 1613 
L 953 1613 
Q 991 1019 1311 708 
Q 1631 397 2203 397 
Q 2534 397 2845 478 
Q 3156 559 3463 722 
L 3463 178 
Q 3153 47 2828 -22 
Q 2503 -91 2169 -91 
Q 1331 -91 842 396 
Q 353 884 353 1716 
Q 353 2575 817 3079 
Q 1281 3584 2069 3584 
Q 2775 3584 3186 3129 
Q 3597 2675 3597 1894 
z
M 3022 2063 
Q 3016 2534 2758 2815 
Q 2500 3097 2075 3097 
Q 1594 3097 1305 2825 
Q 1016 2553 972 2059 
L 3022 2063 
z
" transform="scale(0.015625)"/>
      <path id="DejaVuSans-74" d="M 1172 4494 
L 1172 3500 
L 2356 3500 
L 2356 3053 
L 1172 3053 
L 1172 1153 
Q 1172 725 1289 603 
Q 1406 481 1766 481 
L 2356 481 
L 2356 0 
L 1766 0 
Q 1100 0 847 248 
Q 594 497 594 1153 
L 594 3053 
L 172 3053 
L 172 3500 
L 594 3500 
L 594 4494 
L 1172 4494 
z
" transform="scale(0.015625)"/>
      <path id="DejaVuSans-72" d="M 2631 2963 
Q 2534 3019 2420 3045 
Q 2306 3072 2169 3072 
Q 1681 3072 1420 2755 
Q 1159 2438 1159 1844 
L 1159 0 
L 581 0 
L 581 3500 
L 1159 3500 
L 1159 2956 
Q 1341 3275 1631 3429 
Q 1922 3584 2338 3584 
Q 2397 3584 2469 3576 
Q 2541 3569 2628 3553 
L 2631 2963 
z
" transform="scale(0.015625)"/>
      <path id="DejaVuSans-79" d="M 2059 -325 
Q 1816 -950 1584 -1140 
Q 1353 -1331 966 -1331 
L 506 -1331 
L 506 -850 
L 844 -850 
Q 1081 -850 1212 -737 
Q 1344 -625 1503 -206 
L 1606 56 
L 191 3500 
L 800 3500 
L 1894 763 
L 2988 3500 
L 3597 3500 
L 2059 -325 
z
" transform="scale(0.015625)"/>
     </defs>
     <use xlink:href="#DejaVuSans-43"/>
     <use xlink:href="#DejaVuSans-6f" transform="translate(69.824219 0)"/>
     <use xlink:href="#DejaVuSans-6d" transform="translate(131.005859 0)"/>
     <use xlink:href="#DejaVuSans-70" transform="translate(228.417969 0)"/>
     <use xlink:href="#DejaVuSans-6f" transform="translate(291.894531 0)"/>
     <use xlink:href="#DejaVuSans-75" transform="translate(353.076172 0)"/>
     <use xlink:href="#DejaVuSans-6e" transform="translate(416.455078 0)"/>
     <use xlink:href="#DejaVuSans-64" transform="translate(479.833984 0)"/>
     <use xlink:href="#DejaVuSans-20" transform="translate(543.310547 0)"/>
     <use xlink:href="#DejaVuSans-73" transform="translate(575.097656 0)"/>
     <use xlink:href="#DejaVuSans-75" transform="translate(627.197266 0)"/>
     <use xlink:href="#DejaVuSans-62" transform="translate(690.576172 0)"/>
     <use xlink:href="#DejaVuSans-2d" transform="translate(754.052734 0)"/>
     <use xlink:href="#DejaVuSans-65" transform="translate(790.136719 0)"/>
     <use xlink:href="#DejaVuSans-6e" transform="translate(851.660156 0)"/>
     <use xlink:href="#DejaVuSans-74" transform="translate(915.039062 0)"/>
     <use xlink:href="#DejaVuSans-72" transform="translate(954.248047 0)"/>
     <use xlink:href="#DejaVuSans-79" transform="translate(995.361328 0)"/>
    </g>
    <!-- 126,360 -->
    <g transform="translate(115.101129 225.127965) scale(0.08 -0.08)">
     <defs>
      <path id="DejaVuSans-31" d="M 794 531 
L 1825 531 
L 1825 4091 
L 703 3866 
L 703 4441 
L 1819 4666 
L 2450 4666 
L 2450 531 
L 3481 531 
L 3481 0 
L 794 0 
L 794 531 
z
" transform="scale(0.015625)"/>
      <path id="DejaVuSans-32" d="M 1228 531 
L 3431 531 
L 3431 0 
L 469 0 
L 469 531 
Q 828 903 1448 1529 
Q 2069 2156 2228 2338 
Q 2531 2678 2651 2914 
Q 2772 3150 2772 3378 
Q 2772 3750 2511 3984 
Q 2250 4219 1831 4219 
Q 1534 4219 1204 4116 
Q 875 4013 500 3803 
L 500 4441 
Q 881 4594 1212 4672 
Q 1544 4750 1819 4750 
Q 2544 4750 2975 4387 
Q 3406 4025 3406 3419 
Q 3406 3131 3298 2873 
Q 3191 2616 2906 2266 
Q 2828 2175 2409 1742 
Q 1991 1309 1228 531 
z
" transform="scale(0.015625)"/>
      <path id="DejaVuSans-36" d="M 2113 2584 
Q 1688 2584 1439 2293 
Q 1191 2003 1191 1497 
Q 1191 994 1439 701 
Q 1688 409 2113 409 
Q 2538 409 2786 701 
Q 3034 994 3034 1497 
Q 3034 2003 2786 2293 
Q 2538 2584 2113 2584 
z
M 3366 4563 
L 3366 3988 
Q 3128 4100 2886 4159 
Q 2644 4219 2406 4219 
Q 1781 4219 1451 3797 
Q 1122 3375 1075 2522 
Q 1259 2794 1537 2939 
Q 1816 3084 2150 3084 
Q 2853 3084 3261 2657 
Q 3669 2231 3669 1497 
Q 3669 778 3244 343 
Q 2819 -91 2113 -91 
Q 1303 -91 875 529 
Q 447 1150 447 2328 
Q 447 3434 972 4092 
Q 1497 4750 2381 4750 
Q 2619 4750 2861 4703 
Q 3103 4656 3366 4563 
z
" transform="scale(0.015625)"/>
      <path id="DejaVuSans-2c" d="M 750 794 
L 1409 794 
L 1409 256 
L 897 -744 
L 494 -744 
L 750 256 
L 750 794 
z
" transform="scale(0.015625)"/>
      <path id="DejaVuSans-33" d="M 2597 2516 
Q 3050 2419 3304 2112 
Q 3559 1806 3559 1356 
Q 3559 666 3084 287 
Q 2609 -91 1734 -91 
Q 1441 -91 1130 -33 
Q 819 25 488 141 
L 488 750 
Q 750 597 1062 519 
Q 1375 441 1716 441 
Q 2309 441 2620 675 
Q 2931 909 2931 1356 
Q 2931 1769 2642 2001 
Q 2353 2234 1838 2234 
L 1294 2234 
L 1294 2753 
L 1863 2753 
Q 2328 2753 2575 2939 
Q 2822 3125 2822 3475 
Q 2822 3834 2567 4026 
Q 2313 4219 1838 4219 
Q 1578 4219 1281 4162 
Q 984 4106 628 3988 
L 628 4550 
Q 988 4650 1302 4700 
Q 1616 4750 1894 4750 
Q 2613 4750 3031 4423 
Q 3450 4097 3450 3541 
Q 3450 3153 3228 2886 
Q 3006 2619 2597 2516 
z
" transform="scale(0.015625)"/>
      <path id="DejaVuSans-30" d="M 2034 4250 
Q 1547 4250 1301 3770 
Q 1056 3291 1056 2328 
Q 1056 1369 1301 889 
Q 1547 409 2034 409 
Q 2525 409 2770 889 
Q 3016 1369 3016 2328 
Q 3016 3291 2770 3770 
Q 2525 4250 2034 4250 
z
M 2034 4750 
Q 2819 4750 3233 4129 
Q 3647 3509 3647 2328 
Q 3647 1150 3233 529 
Q 2819 -91 2034 -91 
Q 1250 -91 836 529 
Q 422 1150 422 2328 
Q 422 3509 836 4129 
Q 1250 4750 2034 4750 
z
" transform="scale(0.015625)"/>
     </defs>
     <use xlink:href="#DejaVuSans-31"/>
     <use xlink:href="#DejaVuSans-32" transform="translate(63.623047 0)"/>
     <use xlink:href="#DejaVuSans-36" transform="translate(127.246094 0)"/>
     <use xlink:href="#DejaVuSans-2c" transform="translate(190.869141 0)"/>
     <use xlink:href="#DejaVuSans-33" transform="translate(222.65625 0)"/>
     <use xlink:href="#DejaVuSans-36" transform="translate(286.279297 0)"/>
     <use xlink:href="#DejaVuSans-30" transform="translate(349.902344 0)"/>
    </g>
    <!-- (44.1%) -->
    <g transform="translate(115.814254 234.086215) scale(0.08 -0.08)">
     <defs>
      <path id="DejaVuSans-28" d="M 1984 4856 
Q 1566 4138 1362 3434 
Q 1159 2731 1159 2009 
Q 1159 1288 1364 580 
Q 1569 -128 1984 -844 
L 1484 -844 
Q 1016 -109 783 600 
Q 550 1309 550 2009 
Q 550 2706 781 3412 
Q 1013 4119 1484 4856 
L 1984 4856 
z
" transform="scale(0.015625)"/>
      <path id="DejaVuSans-34" d="M 2419 4116 
L 825 1625 
L 2419 1625 
L 2419 4116 
z
M 2253 4666 
L 3047 4666 
L 3047 1625 
L 3713 1625 
L 3713 1100 
L 3047 1100 
L 3047 0 
L 2419 0 
L 2419 1100 
L 313 1100 
L 313 1709 
L 2253 4666 
z
" transform="scale(0.015625)"/>
      <path id="DejaVuSans-2e" d="M 684 794 
L 1344 794 
L 1344 0 
L 684 0 
L 684 794 
z
" transform="scale(0.015625)"/>
      <path id="DejaVuSans-25" d="M 4653 2053 
Q 4381 2053 4226 1822 
Q 4072 1591 4072 1178 
Q 4072 772 4226 539 
Q 4381 306 4653 306 
Q 4919 306 5073 539 
Q 5228 772 5228 1178 
Q 5228 1588 5073 1820 
Q 4919 2053 4653 2053 
z
M 4653 2450 
Q 5147 2450 5437 2106 
Q 5728 1763 5728 1178 
Q 5728 594 5436 251 
Q 5144 -91 4653 -91 
Q 4153 -91 3862 251 
Q 3572 594 3572 1178 
Q 3572 1766 3864 2108 
Q 4156 2450 4653 2450 
z
M 1428 4353 
Q 1159 4353 1004 4120 
Q 850 3888 850 3481 
Q 850 3069 1003 2837 
Q 1156 2606 1428 2606 
Q 1700 2606 1854 2837 
Q 2009 3069 2009 3481 
Q 2009 3884 1853 4118 
Q 1697 4353 1428 4353 
z
M 4250 4750 
L 4750 4750 
L 1831 -91 
L 1331 -91 
L 4250 4750 
z
M 1428 4750 
Q 1922 4750 2215 4408 
Q 2509 4066 2509 3481 
Q 2509 2891 2217 2550 
Q 1925 2209 1428 2209 
Q 931 2209 642 2551 
Q 353 2894 353 3481 
Q 353 4063 643 4406 
Q 934 4750 1428 4750 
z
" transform="scale(0.015625)"/>
      <path id="DejaVuSans-29" d="M 513 4856 
L 1013 4856 
Q 1481 4119 1714 3412 
Q 1947 2706 1947 2009 
Q 1947 1309 1714 600 
Q 1481 -109 1013 -844 
L 513 -844 
Q 928 -128 1133 580 
Q 1338 1288 1338 2009 
Q 1338 2731 1133 3434 
Q 928 4138 513 4856 
z
" transform="scale(0.015625)"/>
     </defs>
     <use xlink:href="#DejaVuSans-28"/>
     <use xlink:href="#DejaVuSans-34" transform="translate(39.013672 0)"/>
     <use xlink:href="#DejaVuSans-34" transform="translate(102.636719 0)"/>
     <use xlink:href="#DejaVuSans-2e" transform="translate(166.259766 0)"/>
     <use xlink:href="#DejaVuSans-31" transform="translate(198.046875 0)"/>
     <use xlink:href="#DejaVuSans-25" transform="translate(261.669922 0)"/>
     <use xlink:href="#DejaVuSans-29" transform="translate(356.689453 0)"/>
    </g>
   </g>
   <g id="text_2">
    <!-- Derived form -->
    <g transform="translate(105.379879 93.589715) scale(0.08 -0.08)">
     <defs>
      <path id="DejaVuSans-44" d="M 1259 4147 
L 1259 519 
L 2022 519 
Q 2988 519 3436 956 
Q 3884 1394 3884 2338 
Q 3884 3275 3436 3711 
Q 2988 4147 2022 4147 
L 1259 4147 
z
M 628 4666 
L 1925 4666 
Q 3281 4666 3915 4102 
Q 4550 3538 4550 2338 
Q 4550 1131 3912 565 
Q 3275 0 1925 0 
L 628 0 
L 628 4666 
z
" transform="scale(0.015625)"/>
      <path id="DejaVuSans-69" d="M 603 3500 
L 1178 3500 
L 1178 0 
L 603 0 
L 603 3500 
z
M 603 4863 
L 1178 4863 
L 1178 4134 
L 603 4134 
L 603 4863 
z
" transform="scale(0.015625)"/>
      <path id="DejaVuSans-76" d="M 191 3500 
L 800 3500 
L 1894 563 
L 2988 3500 
L 3597 3500 
L 2284 0 
L 1503 0 
L 191 3500 
z
" transform="scale(0.015625)"/>
      <path id="DejaVuSans-66" d="M 2375 4863 
L 2375 4384 
L 1825 4384 
Q 1516 4384 1395 4259 
Q 1275 4134 1275 3809 
L 1275 3500 
L 2222 3500 
L 2222 3053 
L 1275 3053 
L 1275 0 
L 697 0 
L 697 3053 
L 147 3053 
L 147 3500 
L 697 3500 
L 697 3744 
Q 697 4328 969 4595 
Q 1241 4863 1831 4863 
L 2375 4863 
z
" transform="scale(0.015625)"/>
     </defs>
     <use xlink:href="#DejaVuSans-44"/>
     <use xlink:href="#DejaVuSans-65" transform="translate(77.001953 0)"/>
     <use xlink:href="#DejaVuSans-72" transform="translate(138.525391 0)"/>
     <use xlink:href="#DejaVuSans-69" transform="translate(179.638672 0)"/>
     <use xlink:href="#DejaVuSans-76" transform="translate(207.421875 0)"/>
     <use xlink:href="#DejaVuSans-65" transform="translate(266.601562 0)"/>
     <use xlink:href="#DejaVuSans-64" transform="translate(328.125 0)"/>
     <use xlink:href="#DejaVuSans-20" transform="translate(391.601562 0)"/>
     <use xlink:href="#DejaVuSans-66" transform="translate(423.388672 0)"/>
     <use xlink:href="#DejaVuSans-6f" transform="translate(458.59375 0)"/>
     <use xlink:href="#DejaVuSans-72" transform="translate(519.775391 0)"/>
     <use xlink:href="#DejaVuSans-6d" transform="translate(559.138672 0)"/>
    </g>
    <!-- 72,119 -->
    <g transform="translate(117.646129 102.547965) scale(0.08 -0.08)">
     <defs>
      <path id="DejaVuSans-37" d="M 525 4666 
L 3525 4666 
L 3525 4397 
L 1831 0 
L 1172 0 
L 2766 4134 
L 525 4134 
L 525 4666 
z
" transform="scale(0.015625)"/>
      <path id="DejaVuSans-39" d="M 703 97 
L 703 672 
Q 941 559 1184 500 
Q 1428 441 1663 441 
Q 2288 441 2617 861 
Q 2947 1281 2994 2138 
Q 2813 1869 2534 1725 
Q 2256 1581 1919 1581 
Q 1219 1581 811 2004 
Q 403 2428 403 3163 
Q 403 3881 828 4315 
Q 1253 4750 1959 4750 
Q 2769 4750 3195 4129 
Q 3622 3509 3622 2328 
Q 3622 1225 3098 567 
Q 2575 -91 1691 -91 
Q 1453 -91 1209 -44 
Q 966 3 703 97 
z
M 1959 2075 
Q 2384 2075 2632 2365 
Q 2881 2656 2881 3163 
Q 2881 3666 2632 3958 
Q 2384 4250 1959 4250 
Q 1534 4250 1286 3958 
Q 1038 3666 1038 3163 
Q 1038 2656 1286 2365 
Q 1534 2075 1959 2075 
z
" transform="scale(0.015625)"/>
     </defs>
     <use xlink:href="#DejaVuSans-37"/>
     <use xlink:href="#DejaVuSans-32" transform="translate(63.623047 0)"/>
     <use xlink:href="#DejaVuSans-2c" transform="translate(127.246094 0)"/>
     <use xlink:href="#DejaVuSans-31" transform="translate(159.033203 0)"/>
     <use xlink:href="#DejaVuSans-31" transform="translate(222.65625 0)"/>
     <use xlink:href="#DejaVuSans-39" transform="translate(286.279297 0)"/>
    </g>
    <!-- (25.2%) -->
    <g transform="translate(115.814254 111.506215) scale(0.08 -0.08)">
     <defs>
      <path id="DejaVuSans-35" d="M 691 4666 
L 3169 4666 
L 3169 4134 
L 1269 4134 
L 1269 2991 
Q 1406 3038 1543 3061 
Q 1681 3084 1819 3084 
Q 2600 3084 3056 2656 
Q 3513 2228 3513 1497 
Q 3513 744 3044 326 
Q 2575 -91 1722 -91 
Q 1428 -91 1123 -41 
Q 819 9 494 109 
L 494 744 
Q 775 591 1075 516 
Q 1375 441 1709 441 
Q 2250 441 2565 725 
Q 2881 1009 2881 1497 
Q 2881 1984 2565 2268 
Q 2250 2553 1709 2553 
Q 1456 2553 1204 2497 
Q 953 2441 691 2322 
L 691 4666 
z
" transform="scale(0.015625)"/>
     </defs>
     <use xlink:href="#DejaVuSans-28"/>
     <use xlink:href="#DejaVuSans-32" transform="translate(39.013672 0)"/>
     <use xlink:href="#DejaVuSans-35" transform="translate(102.636719 0)"/>
     <use xlink:href="#DejaVuSans-2e" transform="translate(166.259766 0)"/>
     <use xlink:href="#DejaVuSans-32" transform="translate(198.046875 0)"/>
     <use xlink:href="#DejaVuSans-25" transform="translate(261.669922 0)"/>
     <use xlink:href="#DejaVuSans-29" transform="translate(356.689453 0)"/>
    </g>
   </g>
   <g id="text_3">
    <!-- Vedic-accented -->
    <g transform="translate(335.594971 261.39209) scale(0.08 -0.08)">
     <defs>
      <path id="DejaVuSans-56" d="M 1831 0 
L 50 4666 
L 709 4666 
L 2188 738 
L 3669 4666 
L 4325 4666 
L 2547 0 
L 1831 0 
z
" transform="scale(0.015625)"/>
      <path id="DejaVuSans-63" d="M 3122 3366 
L 3122 2828 
Q 2878 2963 2633 3030 
Q 2388 3097 2138 3097 
Q 1578 3097 1268 2742 
Q 959 2388 959 1747 
Q 959 1106 1268 751 
Q 1578 397 2138 397 
Q 2388 397 2633 464 
Q 2878 531 3122 666 
L 3122 134 
Q 2881 22 2623 -34 
Q 2366 -91 2075 -91 
Q 1284 -91 818 406 
Q 353 903 353 1747 
Q 353 2603 823 3093 
Q 1294 3584 2113 3584 
Q 2378 3584 2631 3529 
Q 2884 3475 3122 3366 
z
" transform="scale(0.015625)"/>
      <path id="DejaVuSans-61" d="M 2194 1759 
Q 1497 1759 1228 1600 
Q 959 1441 959 1056 
Q 959 750 1161 570 
Q 1363 391 1709 391 
Q 2188 391 2477 730 
Q 2766 1069 2766 1631 
L 2766 1759 
L 2194 1759 
z
M 3341 1997 
L 3341 0 
L 2766 0 
L 2766 531 
Q 2569 213 2275 61 
Q 1981 -91 1556 -91 
Q 1019 -91 701 211 
Q 384 513 384 1019 
Q 384 1609 779 1909 
Q 1175 2209 1959 2209 
L 2766 2209 
L 2766 2266 
Q 2766 2663 2505 2880 
Q 2244 3097 1772 3097 
Q 1472 3097 1187 3025 
Q 903 2953 641 2809 
L 641 3341 
Q 956 3463 1253 3523 
Q 1550 3584 1831 3584 
Q 2591 3584 2966 3190 
Q 3341 2797 3341 1997 
z
" transform="scale(0.015625)"/>
     </defs>
     <use xlink:href="#DejaVuSans-56"/>
     <use xlink:href="#DejaVuSans-65" transform="translate(60.658203 0)"/>
     <use xlink:href="#DejaVuSans-64" transform="translate(122.181641 0)"/>
     <use xlink:href="#DejaVuSans-69" transform="translate(185.658203 0)"/>
     <use xlink:href="#DejaVuSans-63" transform="translate(213.441406 0)"/>
     <use xlink:href="#DejaVuSans-2d" transform="translate(268.421875 0)"/>
     <use xlink:href="#DejaVuSans-61" transform="translate(304.505859 0)"/>
     <use xlink:href="#DejaVuSans-63" transform="translate(365.785156 0)"/>
     <use xlink:href="#DejaVuSans-63" transform="translate(420.765625 0)"/>
     <use xlink:href="#DejaVuSans-65" transform="translate(475.746094 0)"/>
     <use xlink:href="#DejaVuSans-6e" transform="translate(537.269531 0)"/>
     <use xlink:href="#DejaVuSans-74" transform="translate(600.648438 0)"/>
     <use xlink:href="#DejaVuSans-65" transform="translate(639.857422 0)"/>
     <use xlink:href="#DejaVuSans-64" transform="translate(701.380859 0)"/>
    </g>
    <!-- 47,598 -->
    <g transform="translate(352.194346 270.35034) scale(0.08 -0.08)">
     <defs>
      <path id="DejaVuSans-38" d="M 2034 2216 
Q 1584 2216 1326 1975 
Q 1069 1734 1069 1313 
Q 1069 891 1326 650 
Q 1584 409 2034 409 
Q 2484 409 2743 651 
Q 3003 894 3003 1313 
Q 3003 1734 2745 1975 
Q 2488 2216 2034 2216 
z
M 1403 2484 
Q 997 2584 770 2862 
Q 544 3141 544 3541 
Q 544 4100 942 4425 
Q 1341 4750 2034 4750 
Q 2731 4750 3128 4425 
Q 3525 4100 3525 3541 
Q 3525 3141 3298 2862 
Q 3072 2584 2669 2484 
Q 3125 2378 3379 2068 
Q 3634 1759 3634 1313 
Q 3634 634 3220 271 
Q 2806 -91 2034 -91 
Q 1263 -91 848 271 
Q 434 634 434 1313 
Q 434 1759 690 2068 
Q 947 2378 1403 2484 
z
M 1172 3481 
Q 1172 3119 1398 2916 
Q 1625 2713 2034 2713 
Q 2441 2713 2670 2916 
Q 2900 3119 2900 3481 
Q 2900 3844 2670 4047 
Q 2441 4250 2034 4250 
Q 1625 4250 1398 4047 
Q 1172 3844 1172 3481 
z
" transform="scale(0.015625)"/>
     </defs>
     <use xlink:href="#DejaVuSans-34"/>
     <use xlink:href="#DejaVuSans-37" transform="translate(63.623047 0)"/>
     <use xlink:href="#DejaVuSans-2c" transform="translate(127.246094 0)"/>
     <use xlink:href="#DejaVuSans-35" transform="translate(159.033203 0)"/>
     <use xlink:href="#DejaVuSans-39" transform="translate(222.65625 0)"/>
     <use xlink:href="#DejaVuSans-38" transform="translate(286.279297 0)"/>
    </g>
    <!-- (16.6%) -->
    <g transform="translate(350.362471 279.30859) scale(0.08 -0.08)">
     <use xlink:href="#DejaVuSans-28"/>
     <use xlink:href="#DejaVuSans-31" transform="translate(39.013672 0)"/>
     <use xlink:href="#DejaVuSans-36" transform="translate(102.636719 0)"/>
     <use xlink:href="#DejaVuSans-2e" transform="translate(166.259766 0)"/>
     <use xlink:href="#DejaVuSans-36" transform="translate(198.046875 0)"/>
     <use xlink:href="#DejaVuSans-25" transform="translate(261.669922 0)"/>
     <use xlink:href="#DejaVuSans-29" transform="translate(356.689453 0)"/>
    </g>
   </g>
   <g id="text_4">
    <!-- Lexicographer-only -->
    <g transform="translate(290.710662 188.672827) scale(0.08 -0.08)">
     <defs>
      <path id="DejaVuSans-4c" d="M 628 4666 
L 1259 4666 
L 1259 531 
L 3531 531 
L 3531 0 
L 628 0 
L 628 4666 
z
" transform="scale(0.015625)"/>
      <path id="DejaVuSans-78" d="M 3513 3500 
L 2247 1797 
L 3578 0 
L 2900 0 
L 1881 1375 
L 863 0 
L 184 0 
L 1544 1831 
L 300 3500 
L 978 3500 
L 1906 2253 
L 2834 3500 
L 3513 3500 
z
" transform="scale(0.015625)"/>
      <path id="DejaVuSans-67" d="M 2906 1791 
Q 2906 2416 2648 2759 
Q 2391 3103 1925 3103 
Q 1463 3103 1205 2759 
Q 947 2416 947 1791 
Q 947 1169 1205 825 
Q 1463 481 1925 481 
Q 2391 481 2648 825 
Q 2906 1169 2906 1791 
z
M 3481 434 
Q 3481 -459 3084 -895 
Q 2688 -1331 1869 -1331 
Q 1566 -1331 1297 -1286 
Q 1028 -1241 775 -1147 
L 775 -588 
Q 1028 -725 1275 -790 
Q 1522 -856 1778 -856 
Q 2344 -856 2625 -561 
Q 2906 -266 2906 331 
L 2906 616 
Q 2728 306 2450 153 
Q 2172 0 1784 0 
Q 1141 0 747 490 
Q 353 981 353 1791 
Q 353 2603 747 3093 
Q 1141 3584 1784 3584 
Q 2172 3584 2450 3431 
Q 2728 3278 2906 2969 
L 2906 3500 
L 3481 3500 
L 3481 434 
z
" transform="scale(0.015625)"/>
      <path id="DejaVuSans-68" d="M 3513 2113 
L 3513 0 
L 2938 0 
L 2938 2094 
Q 2938 2591 2744 2837 
Q 2550 3084 2163 3084 
Q 1697 3084 1428 2787 
Q 1159 2491 1159 1978 
L 1159 0 
L 581 0 
L 581 4863 
L 1159 4863 
L 1159 2956 
Q 1366 3272 1645 3428 
Q 1925 3584 2291 3584 
Q 2894 3584 3203 3211 
Q 3513 2838 3513 2113 
z
" transform="scale(0.015625)"/>
      <path id="DejaVuSans-6c" d="M 603 4863 
L 1178 4863 
L 1178 0 
L 603 0 
L 603 4863 
z
" transform="scale(0.015625)"/>
     </defs>
     <use xlink:href="#DejaVuSans-4c"/>
     <use xlink:href="#DejaVuSans-65" transform="translate(53.962891 0)"/>
     <use xlink:href="#DejaVuSans-78" transform="translate(113.736328 0)"/>
     <use xlink:href="#DejaVuSans-69" transform="translate(172.916016 0)"/>
     <use xlink:href="#DejaVuSans-63" transform="translate(200.699219 0)"/>
     <use xlink:href="#DejaVuSans-6f" transform="translate(255.679688 0)"/>
     <use xlink:href="#DejaVuSans-67" transform="translate(316.861328 0)"/>
     <use xlink:href="#DejaVuSans-72" transform="translate(380.337891 0)"/>
     <use xlink:href="#DejaVuSans-61" transform="translate(421.451172 0)"/>
     <use xlink:href="#DejaVuSans-70" transform="translate(482.730469 0)"/>
     <use xlink:href="#DejaVuSans-68" transform="translate(546.207031 0)"/>
     <use xlink:href="#DejaVuSans-65" transform="translate(609.585938 0)"/>
     <use xlink:href="#DejaVuSans-72" transform="translate(671.109375 0)"/>
     <use xlink:href="#DejaVuSans-2d" transform="translate(705.847656 0)"/>
     <use xlink:href="#DejaVuSans-6f" transform="translate(743.806641 0)"/>
     <use xlink:href="#DejaVuSans-6e" transform="translate(804.988281 0)"/>
     <use xlink:href="#DejaVuSans-6c" transform="translate(868.367188 0)"/>
     <use xlink:href="#DejaVuSans-79" transform="translate(896.150391 0)"/>
    </g>
    <!-- 38,414 -->
    <g transform="translate(314.929412 197.631077) scale(0.08 -0.08)">
     <use xlink:href="#DejaVuSans-33"/>
     <use xlink:href="#DejaVuSans-38" transform="translate(63.623047 0)"/>
     <use xlink:href="#DejaVuSans-2c" transform="translate(127.246094 0)"/>
     <use xlink:href="#DejaVuSans-34" transform="translate(159.033203 0)"/>
     <use xlink:href="#DejaVuSans-31" transform="translate(222.65625 0)"/>
     <use xlink:href="#DejaVuSans-34" transform="translate(286.279297 0)"/>
    </g>
    <!-- (13.4%) -->
    <g transform="translate(313.097537 206.589327) scale(0.08 -0.08)">
     <use xlink:href="#DejaVuSans-28"/>
     <use xlink:href="#DejaVuSans-31" transform="translate(39.013672 0)"/>
     <use xlink:href="#DejaVuSans-33" transform="translate(102.636719 0)"/>
     <use xlink:href="#DejaVuSans-2e" transform="translate(166.259766 0)"/>
     <use xlink:href="#DejaVuSans-34" transform="translate(198.046875 0)"/>
     <use xlink:href="#DejaVuSans-25" transform="translate(261.669922 0)"/>
     <use xlink:href="#DejaVuSans-29" transform="translate(356.689453 0)"/>
    </g>
   </g>
   <g id="text_5">
    <!-- Other -->
    <g transform="translate(428.394001 188.672827) scale(0.08 -0.08)">
     <defs>
      <path id="DejaVuSans-4f" d="M 2522 4238 
Q 1834 4238 1429 3725 
Q 1025 3213 1025 2328 
Q 1025 1447 1429 934 
Q 1834 422 2522 422 
Q 3209 422 3611 934 
Q 4013 1447 4013 2328 
Q 4013 3213 3611 3725 
Q 3209 4238 2522 4238 
z
M 2522 4750 
Q 3503 4750 4090 4092 
Q 4678 3434 4678 2328 
Q 4678 1225 4090 567 
Q 3503 -91 2522 -91 
Q 1538 -91 948 565 
Q 359 1222 359 2328 
Q 359 3434 948 4092 
Q 1538 4750 2522 4750 
z
" transform="scale(0.015625)"/>
     </defs>
     <use xlink:href="#DejaVuSans-4f"/>
     <use xlink:href="#DejaVuSans-74" transform="translate(78.710938 0)"/>
     <use xlink:href="#DejaVuSans-68" transform="translate(117.919922 0)"/>
     <use xlink:href="#DejaVuSans-65" transform="translate(181.298828 0)"/>
     <use xlink:href="#DejaVuSans-72" transform="translate(242.822266 0)"/>
    </g>
    <!-- 19,460 -->
    <g transform="translate(425.755251 197.631077) scale(0.08 -0.08)">
     <use xlink:href="#DejaVuSans-31"/>
     <use xlink:href="#DejaVuSans-39" transform="translate(63.623047 0)"/>
     <use xlink:href="#DejaVuSans-2c" transform="translate(127.246094 0)"/>
     <use xlink:href="#DejaVuSans-34" transform="translate(159.033203 0)"/>
     <use xlink:href="#DejaVuSans-36" transform="translate(222.65625 0)"/>
     <use xlink:href="#DejaVuSans-30" transform="translate(286.279297 0)"/>
    </g>
    <!-- (6.8%) -->
    <g transform="translate(426.468376 206.589327) scale(0.08 -0.08)">
     <use xlink:href="#DejaVuSans-28"/>
     <use xlink:href="#DejaVuSans-36" transform="translate(39.013672 0)"/>
     <use xlink:href="#DejaVuSans-2e" transform="translate(102.636719 0)"/>
     <use xlink:href="#DejaVuSans-38" transform="translate(134.423828 0)"/>
     <use xlink:href="#DejaVuSans-25" transform="translate(198.046875 0)"/>
     <use xlink:href="#DejaVuSans-29" transform="translate(293.066406 0)"/>
    </g>
   </g>
   <g id="text_6">
    <!-- Masculine noun -->
    <g transform="translate(272.288912 118.31895) scale(0.08 -0.08)">
     <defs>
      <path id="DejaVuSans-4d" d="M 628 4666 
L 1569 4666 
L 2759 1491 
L 3956 4666 
L 4897 4666 
L 4897 0 
L 4281 0 
L 4281 4097 
L 3078 897 
L 2444 897 
L 1241 4097 
L 1241 0 
L 628 0 
L 628 4666 
z
" transform="scale(0.015625)"/>
     </defs>
     <use xlink:href="#DejaVuSans-4d"/>
     <use xlink:href="#DejaVuSans-61" transform="translate(86.279297 0)"/>
     <use xlink:href="#DejaVuSans-73" transform="translate(147.558594 0)"/>
     <use xlink:href="#DejaVuSans-63" transform="translate(199.658203 0)"/>
     <use xlink:href="#DejaVuSans-75" transform="translate(254.638672 0)"/>
     <use xlink:href="#DejaVuSans-6c" transform="translate(318.017578 0)"/>
     <use xlink:href="#DejaVuSans-69" transform="translate(345.800781 0)"/>
     <use xlink:href="#DejaVuSans-6e" transform="translate(373.583984 0)"/>
     <use xlink:href="#DejaVuSans-65" transform="translate(436.962891 0)"/>
     <use xlink:href="#DejaVuSans-20" transform="translate(498.486328 0)"/>
     <use xlink:href="#DejaVuSans-6e" transform="translate(530.273438 0)"/>
     <use xlink:href="#DejaVuSans-6f" transform="translate(593.652344 0)"/>
     <use xlink:href="#DejaVuSans-75" transform="translate(654.833984 0)"/>
     <use xlink:href="#DejaVuSans-6e" transform="translate(718.212891 0)"/>
    </g>
    <!-- 19,204 -->
    <g transform="translate(289.555787 127.2772) scale(0.08 -0.08)">
     <use xlink:href="#DejaVuSans-31"/>
     <use xlink:href="#DejaVuSans-39" transform="translate(63.623047 0)"/>
     <use xlink:href="#DejaVuSans-2c" transform="translate(127.246094 0)"/>
     <use xlink:href="#DejaVuSans-32" transform="translate(159.033203 0)"/>
     <use xlink:href="#DejaVuSans-30" transform="translate(222.65625 0)"/>
     <use xlink:href="#DejaVuSans-34" transform="translate(286.279297 0)"/>
    </g>
    <!-- (6.7%) -->
    <g transform="translate(290.268912 136.23545) scale(0.08 -0.08)">
     <use xlink:href="#DejaVuSans-28"/>
     <use xlink:href="#DejaVuSans-36" transform="translate(39.013672 0)"/>
     <use xlink:href="#DejaVuSans-2e" transform="translate(102.636719 0)"/>
     <use xlink:href="#DejaVuSans-37" transform="translate(134.423828 0)"/>
     <use xlink:href="#DejaVuSans-25" transform="translate(198.046875 0)"/>
     <use xlink:href="#DejaVuSans-29" transform="translate(293.066406 0)"/>
    </g>
   </g>
   <g id="text_7">
    <!-- Adjective (mfn.) -->
    <g transform="translate(271.563287 68.458213) scale(0.08 -0.08)">
     <defs>
      <path id="DejaVuSans-41" d="M 2188 4044 
L 1331 1722 
L 3047 1722 
L 2188 4044 
z
M 1831 4666 
L 2547 4666 
L 4325 0 
L 3669 0 
L 3244 1197 
L 1141 1197 
L 716 0 
L 50 0 
L 1831 4666 
z
" transform="scale(0.015625)"/>
      <path id="DejaVuSans-6a" d="M 603 3500 
L 1178 3500 
L 1178 -63 
Q 1178 -731 923 -1031 
Q 669 -1331 103 -1331 
L -116 -1331 
L -116 -844 
L 38 -844 
Q 366 -844 484 -692 
Q 603 -541 603 -63 
L 603 3500 
z
M 603 4863 
L 1178 4863 
L 1178 4134 
L 603 4134 
L 603 4863 
z
" transform="scale(0.015625)"/>
     </defs>
     <use xlink:href="#DejaVuSans-41"/>
     <use xlink:href="#DejaVuSans-64" transform="translate(66.658203 0)"/>
     <use xlink:href="#DejaVuSans-6a" transform="translate(130.134766 0)"/>
     <use xlink:href="#DejaVuSans-65" transform="translate(157.917969 0)"/>
     <use xlink:href="#DejaVuSans-63" transform="translate(219.441406 0)"/>
     <use xlink:href="#DejaVuSans-74" transform="translate(274.421875 0)"/>
     <use xlink:href="#DejaVuSans-69" transform="translate(313.630859 0)"/>
     <use xlink:href="#DejaVuSans-76" transform="translate(341.414062 0)"/>
     <use xlink:href="#DejaVuSans-65" transform="translate(400.59375 0)"/>
     <use xlink:href="#DejaVuSans-20" transform="translate(462.117188 0)"/>
     <use xlink:href="#DejaVuSans-28" transform="translate(493.904297 0)"/>
     <use xlink:href="#DejaVuSans-6d" transform="translate(532.917969 0)"/>
     <use xlink:href="#DejaVuSans-66" transform="translate(630.330078 0)"/>
     <use xlink:href="#DejaVuSans-6e" transform="translate(665.535156 0)"/>
     <use xlink:href="#DejaVuSans-2e" transform="translate(728.914062 0)"/>
     <use xlink:href="#DejaVuSans-29" transform="translate(760.701172 0)"/>
    </g>
    <!-- 12,240 -->
    <g transform="translate(289.555787 77.416463) scale(0.08 -0.08)">
     <use xlink:href="#DejaVuSans-31"/>
     <use xlink:href="#DejaVuSans-32" transform="translate(63.623047 0)"/>
     <use xlink:href="#DejaVuSans-2c" transform="translate(127.246094 0)"/>
     <use xlink:href="#DejaVuSans-32" transform="translate(159.033203 0)"/>
     <use xlink:href="#DejaVuSans-34" transform="translate(222.65625 0)"/>
     <use xlink:href="#DejaVuSans-30" transform="translate(286.279297 0)"/>
    </g>
    <!-- (4.3%) -->
    <g transform="translate(290.268912 86.374713) scale(0.08 -0.08)">
     <use xlink:href="#DejaVuSans-28"/>
     <use xlink:href="#DejaVuSans-34" transform="translate(39.013672 0)"/>
     <use xlink:href="#DejaVuSans-2e" transform="translate(102.636719 0)"/>
     <use xlink:href="#DejaVuSans-33" transform="translate(134.423828 0)"/>
     <use xlink:href="#DejaVuSans-25" transform="translate(198.046875 0)"/>
     <use xlink:href="#DejaVuSans-29" transform="translate(293.066406 0)"/>
    </g>
   </g>
   <g id="text_8">
    <!-- Neuter noun -->
    <g transform="translate(359.089587 125.334689) scale(0.08 -0.08)">
     <defs>
      <path id="DejaVuSans-4e" d="M 628 4666 
L 1478 4666 
L 3547 763 
L 3547 4666 
L 4159 4666 
L 4159 0 
L 3309 0 
L 1241 3903 
L 1241 0 
L 628 0 
L 628 4666 
z
" transform="scale(0.015625)"/>
     </defs>
     <use xlink:href="#DejaVuSans-4e"/>
     <use xlink:href="#DejaVuSans-65" transform="translate(74.804688 0)"/>
     <use xlink:href="#DejaVuSans-75" transform="translate(136.328125 0)"/>
     <use xlink:href="#DejaVuSans-74" transform="translate(199.707031 0)"/>
     <use xlink:href="#DejaVuSans-65" transform="translate(238.916016 0)"/>
     <use xlink:href="#DejaVuSans-72" transform="translate(300.439453 0)"/>
     <use xlink:href="#DejaVuSans-20" transform="translate(341.552734 0)"/>
     <use xlink:href="#DejaVuSans-6e" transform="translate(373.339844 0)"/>
     <use xlink:href="#DejaVuSans-6f" transform="translate(436.71875 0)"/>
     <use xlink:href="#DejaVuSans-75" transform="translate(497.900391 0)"/>
     <use xlink:href="#DejaVuSans-6e" transform="translate(561.279297 0)"/>
    </g>
    <!-- 9,918 -->
    <g transform="translate(372.624587 134.292939) scale(0.08 -0.08)">
     <use xlink:href="#DejaVuSans-39"/>
     <use xlink:href="#DejaVuSans-2c" transform="translate(63.623047 0)"/>
     <use xlink:href="#DejaVuSans-39" transform="translate(95.410156 0)"/>
     <use xlink:href="#DejaVuSans-31" transform="translate(159.033203 0)"/>
     <use xlink:href="#DejaVuSans-38" transform="translate(222.65625 0)"/>
    </g>
    <!-- (3.5%) -->
    <g transform="translate(370.792712 143.251189) scale(0.08 -0.08)">
     <use xlink:href="#DejaVuSans-28"/>
     <use xlink:href="#DejaVuSans-33" transform="translate(39.013672 0)"/>
     <use xlink:href="#DejaVuSans-2e" transform="translate(102.636719 0)"/>
     <use xlink:href="#DejaVuSans-35" transform="translate(134.423828 0)"/>
     <use xlink:href="#DejaVuSans-25" transform="translate(198.046875 0)"/>
     <use xlink:href="#DejaVuSans-29" transform="translate(293.066406 0)"/>
    </g>
   </g>
   <g id="text_9">
    <!-- Continuation sense -->
    <g transform="translate(408.180021 125.334689) scale(0.08 -0.08)">
     <use xlink:href="#DejaVuSans-43"/>
     <use xlink:href="#DejaVuSans-6f" transform="translate(69.824219 0)"/>
     <use xlink:href="#DejaVuSans-6e" transform="translate(131.005859 0)"/>
     <use xlink:href="#DejaVuSans-74" transform="translate(194.384766 0)"/>
     <use xlink:href="#DejaVuSans-69" transform="translate(233.59375 0)"/>
     <use xlink:href="#DejaVuSans-6e" transform="translate(261.376953 0)"/>
     <use xlink:href="#DejaVuSans-75" transform="translate(324.755859 0)"/>
     <use xlink:href="#DejaVuSans-61" transform="translate(388.134766 0)"/>
     <use xlink:href="#DejaVuSans-74" transform="translate(449.414062 0)"/>
     <use xlink:href="#DejaVuSans-69" transform="translate(488.623047 0)"/>
     <use xlink:href="#DejaVuSans-6f" transform="translate(516.40625 0)"/>
     <use xlink:href="#DejaVuSans-6e" transform="translate(577.587891 0)"/>
     <use xlink:href="#DejaVuSans-20" transform="translate(640.966797 0)"/>
     <use xlink:href="#DejaVuSans-73" transform="translate(672.753906 0)"/>
     <use xlink:href="#DejaVuSans-65" transform="translate(724.853516 0)"/>
     <use xlink:href="#DejaVuSans-6e" transform="translate(786.376953 0)"/>
     <use xlink:href="#DejaVuSans-73" transform="translate(849.755859 0)"/>
     <use xlink:href="#DejaVuSans-65" transform="translate(901.855469 0)"/>
    </g>
    <!-- 9,294 -->
    <g transform="translate(435.263146 134.292939) scale(0.08 -0.08)">
     <use xlink:href="#DejaVuSans-39"/>
     <use xlink:href="#DejaVuSans-2c" transform="translate(63.623047 0)"/>
     <use xlink:href="#DejaVuSans-32" transform="translate(95.410156 0)"/>
     <use xlink:href="#DejaVuSans-39" transform="translate(159.033203 0)"/>
     <use xlink:href="#DejaVuSans-34" transform="translate(222.65625 0)"/>
    </g>
    <!-- (3.2%) -->
    <g transform="translate(433.431271 143.251189) scale(0.08 -0.08)">
     <use xlink:href="#DejaVuSans-28"/>
     <use xlink:href="#DejaVuSans-33" transform="translate(39.013672 0)"/>
     <use xlink:href="#DejaVuSans-2e" transform="translate(102.636719 0)"/>
     <use xlink:href="#DejaVuSans-32" transform="translate(134.423828 0)"/>
     <use xlink:href="#DejaVuSans-25" transform="translate(198.046875 0)"/>
     <use xlink:href="#DejaVuSans-29" transform="translate(293.066406 0)"/>
    </g>
   </g>
   <g id="text_10">
    <!-- Feminine noun -->
    <g transform="translate(370.045522 92.829887) scale(0.08 -0.08)">
     <defs>
      <path id="DejaVuSans-46" d="M 628 4666 
L 3309 4666 
L 3309 4134 
L 1259 4134 
L 1259 2759 
L 3109 2759 
L 3109 2228 
L 1259 2228 
L 1259 0 
L 628 0 
L 628 4666 
z
" transform="scale(0.015625)"/>
     </defs>
     <use xlink:href="#DejaVuSans-46"/>
     <use xlink:href="#DejaVuSans-65" transform="translate(52.019531 0)"/>
     <use xlink:href="#DejaVuSans-6d" transform="translate(113.542969 0)"/>
     <use xlink:href="#DejaVuSans-69" transform="translate(210.955078 0)"/>
     <use xlink:href="#DejaVuSans-6e" transform="translate(238.738281 0)"/>
     <use xlink:href="#DejaVuSans-69" transform="translate(302.117188 0)"/>
     <use xlink:href="#DejaVuSans-6e" transform="translate(329.900391 0)"/>
     <use xlink:href="#DejaVuSans-65" transform="translate(393.279297 0)"/>
     <use xlink:href="#DejaVuSans-20" transform="translate(454.802734 0)"/>
     <use xlink:href="#DejaVuSans-6e" transform="translate(486.589844 0)"/>
     <use xlink:href="#DejaVuSans-6f" transform="translate(549.96875 0)"/>
     <use xlink:href="#DejaVuSans-75" transform="translate(611.150391 0)"/>
     <use xlink:href="#DejaVuSans-6e" transform="translate(674.529297 0)"/>
    </g>
    <!-- 8,479 -->
    <g transform="translate(388.109897 101.788137) scale(0.08 -0.08)">
     <use xlink:href="#DejaVuSans-38"/>
     <use xlink:href="#DejaVuSans-2c" transform="translate(63.623047 0)"/>
     <use xlink:href="#DejaVuSans-34" transform="translate(95.410156 0)"/>
     <use xlink:href="#DejaVuSans-37" transform="translate(159.033203 0)"/>
     <use xlink:href="#DejaVuSans-39" transform="translate(222.65625 0)"/>
    </g>
   </g>
   <g id="text_11">
    <!-- Botanical -->
    <g transform="translate(380.941772 66.405185) scale(0.08 -0.08)">
     <defs>
      <path id="DejaVuSans-42" d="M 1259 2228 
L 1259 519 
L 2272 519 
Q 2781 519 3026 730 
Q 3272 941 3272 1375 
Q 3272 1813 3026 2020 
Q 2781 2228 2272 2228 
L 1259 2228 
z
M 1259 4147 
L 1259 2741 
L 2194 2741 
Q 2656 2741 2882 2914 
Q 3109 3088 3109 3444 
Q 3109 3797 2882 3972 
Q 2656 4147 2194 4147 
L 1259 4147 
z
M 628 4666 
L 2241 4666 
Q 2963 4666 3353 4366 
Q 3744 4066 3744 3513 
Q 3744 3084 3544 2831 
Q 3344 2578 2956 2516 
Q 3422 2416 3680 2098 
Q 3938 1781 3938 1306 
Q 3938 681 3513 340 
Q 3088 0 2303 0 
L 628 0 
L 628 4666 
z
" transform="scale(0.015625)"/>
     </defs>
     <use xlink:href="#DejaVuSans-42"/>
     <use xlink:href="#DejaVuSans-6f" transform="translate(68.603516 0)"/>
     <use xlink:href="#DejaVuSans-74" transform="translate(129.785156 0)"/>
     <use xlink:href="#DejaVuSans-61" transform="translate(168.994141 0)"/>
     <use xlink:href="#DejaVuSans-6e" transform="translate(230.273438 0)"/>
     <use xlink:href="#DejaVuSans-69" transform="translate(293.652344 0)"/>
     <use xlink:href="#DejaVuSans-63" transform="translate(321.435547 0)"/>
     <use xlink:href="#DejaVuSans-61" transform="translate(376.416016 0)"/>
     <use xlink:href="#DejaVuSans-6c" transform="translate(437.695312 0)"/>
    </g>
    <!-- 8,059 -->
    <g transform="translate(388.109897 75.363435) scale(0.08 -0.08)">
     <use xlink:href="#DejaVuSans-38"/>
     <use xlink:href="#DejaVuSans-2c" transform="translate(63.623047 0)"/>
     <use xlink:href="#DejaVuSans-30" transform="translate(95.410156 0)"/>
     <use xlink:href="#DejaVuSans-35" transform="translate(159.033203 0)"/>
     <use xlink:href="#DejaVuSans-39" transform="translate(222.65625 0)"/>
    </g>
   </g>
  </g>
  <g id="text_12">
   <!-- MW1899 — 286,561 entries by article type -->
   <g transform="translate(7.2 15.558281) scale(0.11 -0.11)">
    <defs>
     <path id="DejaVuSans-57" d="M 213 4666 
L 850 4666 
L 1831 722 
L 2809 4666 
L 3519 4666 
L 4500 722 
L 5478 4666 
L 6119 4666 
L 4947 0 
L 4153 0 
L 3169 4050 
L 2175 0 
L 1381 0 
L 213 4666 
z
" transform="scale(0.015625)"/>
     <path id="DejaVuSans-2014" d="M 313 1978 
L 6088 1978 
L 6088 1528 
L 313 1528 
L 313 1978 
z
" transform="scale(0.015625)"/>
    </defs>
    <use xlink:href="#DejaVuSans-4d"/>
    <use xlink:href="#DejaVuSans-57" transform="translate(86.279297 0)"/>
    <use xlink:href="#DejaVuSans-31" transform="translate(185.15625 0)"/>
    <use xlink:href="#DejaVuSans-38" transform="translate(248.779297 0)"/>
    <use xlink:href="#DejaVuSans-39" transform="translate(312.402344 0)"/>
    <use xlink:href="#DejaVuSans-39" transform="translate(376.025391 0)"/>
    <use xlink:href="#DejaVuSans-20" transform="translate(439.648438 0)"/>
    <use xlink:href="#DejaVuSans-2014" transform="translate(471.435547 0)"/>
    <use xlink:href="#DejaVuSans-20" transform="translate(571.435547 0)"/>
    <use xlink:href="#DejaVuSans-32" transform="translate(603.222656 0)"/>
    <use xlink:href="#DejaVuSans-38" transform="translate(666.845703 0)"/>
    <use xlink:href="#DejaVuSans-36" transform="translate(730.46875 0)"/>
    <use xlink:href="#DejaVuSans-2c" transform="translate(794.091797 0)"/>
    <use xlink:href="#DejaVuSans-35" transform="translate(825.878906 0)"/>
    <use xlink:href="#DejaVuSans-36" transform="translate(889.501953 0)"/>
    <use xlink:href="#DejaVuSans-31" transform="translate(953.125 0)"/>
    <use xlink:href="#DejaVuSans-20" transform="translate(1016.748047 0)"/>
    <use xlink:href="#DejaVuSans-65" transform="translate(1048.535156 0)"/>
    <use xlink:href="#DejaVuSans-6e" transform="translate(1110.058594 0)"/>
    <use xlink:href="#DejaVuSans-74" transform="translate(1173.4375 0)"/>
    <use xlink:href="#DejaVuSans-72" transform="translate(1212.646484 0)"/>
    <use xlink:href="#DejaVuSans-69" transform="translate(1253.759766 0)"/>
    <use xlink:href="#DejaVuSans-65" transform="translate(1281.542969 0)"/>
    <use xlink:href="#DejaVuSans-73" transform="translate(1343.066406 0)"/>
    <use xlink:href="#DejaVuSans-20" transform="translate(1395.166016 0)"/>
    <use xlink:href="#DejaVuSans-62" transform="translate(1426.953125 0)"/>
    <use xlink:href="#DejaVuSans-79" transform="translate(1490.429688 0)"/>
    <use xlink:href="#DejaVuSans-20" transform="translate(1549.609375 0)"/>
    <use xlink:href="#DejaVuSans-61" transform="translate(1581.396484 0)"/>
    <use xlink:href="#DejaVuSans-72" transform="translate(1642.675781 0)"/>
    <use xlink:href="#DejaVuSans-74" transform="translate(1683.789062 0)"/>
    <use xlink:href="#DejaVuSans-69" transform="translate(1722.998047 0)"/>
    <use xlink:href="#DejaVuSans-63" transform="translate(1750.78125 0)"/>
    <use xlink:href="#DejaVuSans-6c" transform="translate(1805.761719 0)"/>
    <use xlink:href="#DejaVuSans-65" transform="translate(1833.544922 0)"/>
    <use xlink:href="#DejaVuSans-20" transform="translate(1895.068359 0)"/>
    <use xlink:href="#DejaVuSans-74" transform="translate(1926.855469 0)"/>
    <use xlink:href="#DejaVuSans-79" transform="translate(1966.064453 0)"/>
    <use xlink:href="#DejaVuSans-70" transform="translate(2025.244141 0)"/>
    <use xlink:href="#DejaVuSans-65" transform="translate(2088.720703 0)"/>
   </g>
  </g>
  <g id="text_13">
   <!-- Note: types overlap (an entry can be both noun_m AND vedic_accented). Sizes are membership counts; total is non-additive. -->
   <g style="fill: #666666" transform="translate(7.2 20.16) scale(0.07 -0.07)">
    <defs>
     <path id="DejaVuSans-Oblique-4e" d="M 1081 4666 
L 1931 4666 
L 3219 666 
L 4000 4666 
L 4616 4666 
L 3706 0 
L 2853 0 
L 1569 4025 
L 788 0 
L 172 0 
L 1081 4666 
z
" transform="scale(0.015625)"/>
     <path id="DejaVuSans-Oblique-6f" d="M 1625 -91 
Q 1009 -91 651 289 
Q 294 669 294 1325 
Q 294 1706 417 2101 
Q 541 2497 738 2766 
Q 1047 3184 1428 3384 
Q 1809 3584 2291 3584 
Q 2888 3584 3255 3212 
Q 3622 2841 3622 2241 
Q 3622 1825 3500 1412 
Q 3378 1000 3181 728 
Q 2875 309 2494 109 
Q 2113 -91 1625 -91 
z
M 891 1344 
Q 891 869 1089 633 
Q 1288 397 1691 397 
Q 2269 397 2648 901 
Q 3028 1406 3028 2181 
Q 3028 2634 2825 2865 
Q 2622 3097 2228 3097 
Q 1903 3097 1650 2945 
Q 1397 2794 1197 2484 
Q 1050 2253 970 1956 
Q 891 1659 891 1344 
z
" transform="scale(0.015625)"/>
     <path id="DejaVuSans-Oblique-74" d="M 2706 3500 
L 2619 3053 
L 1472 3053 
L 1100 1153 
Q 1081 1047 1072 975 
Q 1063 903 1063 863 
Q 1063 663 1183 572 
Q 1303 481 1569 481 
L 2150 481 
L 2053 0 
L 1503 0 
Q 991 0 739 200 
Q 488 400 488 806 
Q 488 878 497 964 
Q 506 1050 525 1153 
L 897 3053 
L 409 3053 
L 500 3500 
L 978 3500 
L 1172 4494 
L 1747 4494 
L 1556 3500 
L 2706 3500 
z
" transform="scale(0.015625)"/>
     <path id="DejaVuSans-Oblique-65" d="M 3078 2063 
Q 3088 2113 3092 2166 
Q 3097 2219 3097 2272 
Q 3097 2653 2873 2875 
Q 2650 3097 2266 3097 
Q 1838 3097 1509 2826 
Q 1181 2556 1013 2059 
L 3078 2063 
z
M 3578 1613 
L 903 1613 
Q 884 1494 878 1425 
Q 872 1356 872 1306 
Q 872 872 1139 634 
Q 1406 397 1894 397 
Q 2269 397 2603 481 
Q 2938 566 3225 728 
L 3116 159 
Q 2806 34 2476 -28 
Q 2147 -91 1806 -91 
Q 1078 -91 686 257 
Q 294 606 294 1247 
Q 294 1794 489 2264 
Q 684 2734 1063 3103 
Q 1306 3334 1642 3459 
Q 1978 3584 2356 3584 
Q 2950 3584 3301 3228 
Q 3653 2872 3653 2272 
Q 3653 2128 3634 1964 
Q 3616 1800 3578 1613 
z
" transform="scale(0.015625)"/>
     <path id="DejaVuSans-Oblique-3a" d="M 978 3309 
L 1638 3309 
L 1484 2516 
L 825 2516 
L 978 3309 
z
M 488 794 
L 1147 794 
L 991 0 
L 331 0 
L 488 794 
z
" transform="scale(0.015625)"/>
     <path id="DejaVuSans-Oblique-20" transform="scale(0.015625)"/>
     <path id="DejaVuSans-Oblique-79" d="M 1588 -325 
Q 1188 -997 936 -1164 
Q 684 -1331 294 -1331 
L -159 -1331 
L -63 -850 
L 269 -850 
Q 509 -850 678 -719 
Q 847 -588 1056 -206 
L 1234 128 
L 459 3500 
L 1069 3500 
L 1650 819 
L 3256 3500 
L 3859 3500 
L 1588 -325 
z
" transform="scale(0.015625)"/>
     <path id="DejaVuSans-Oblique-70" d="M 3175 2156 
Q 3175 2616 2975 2859 
Q 2775 3103 2400 3103 
Q 2144 3103 1911 2972 
Q 1678 2841 1497 2591 
Q 1319 2344 1212 1994 
Q 1106 1644 1106 1300 
Q 1106 863 1306 627 
Q 1506 391 1875 391 
Q 2147 391 2380 519 
Q 2613 647 2778 891 
Q 2956 1147 3065 1494 
Q 3175 1841 3175 2156 
z
M 1394 2969 
Q 1625 3272 1939 3428 
Q 2253 3584 2638 3584 
Q 3175 3584 3472 3232 
Q 3769 2881 3769 2247 
Q 3769 1728 3584 1258 
Q 3400 788 3053 416 
Q 2822 169 2531 39 
Q 2241 -91 1919 -91 
Q 1547 -91 1294 64 
Q 1041 219 916 525 
L 556 -1331 
L -19 -1331 
L 922 3500 
L 1497 3500 
L 1394 2969 
z
" transform="scale(0.015625)"/>
     <path id="DejaVuSans-Oblique-73" d="M 3200 3397 
L 3091 2853 
Q 2863 2978 2609 3040 
Q 2356 3103 2088 3103 
Q 1634 3103 1373 2948 
Q 1113 2794 1113 2528 
Q 1113 2219 1719 2053 
Q 1766 2041 1788 2034 
L 1972 1978 
Q 2547 1819 2739 1644 
Q 2931 1469 2931 1166 
Q 2931 609 2489 259 
Q 2047 -91 1331 -91 
Q 1053 -91 747 -37 
Q 441 16 72 128 
L 184 722 
Q 500 559 806 475 
Q 1113 391 1394 391 
Q 1816 391 2080 572 
Q 2344 753 2344 1031 
Q 2344 1331 1650 1516 
L 1591 1531 
L 1394 1581 
Q 956 1697 753 1886 
Q 550 2075 550 2369 
Q 550 2928 970 3256 
Q 1391 3584 2113 3584 
Q 2397 3584 2667 3537 
Q 2938 3491 3200 3397 
z
" transform="scale(0.015625)"/>
     <path id="DejaVuSans-Oblique-76" d="M 459 3500 
L 1069 3500 
L 1581 525 
L 3256 3500 
L 3866 3500 
L 1875 0 
L 1100 0 
L 459 3500 
z
" transform="scale(0.015625)"/>
     <path id="DejaVuSans-Oblique-72" d="M 2853 2969 
Q 2766 3016 2653 3041 
Q 2541 3066 2413 3066 
Q 1953 3066 1609 2717 
Q 1266 2369 1153 1784 
L 800 0 
L 225 0 
L 909 3500 
L 1484 3500 
L 1375 2956 
Q 1603 3259 1920 3421 
Q 2238 3584 2597 3584 
Q 2691 3584 2781 3573 
Q 2872 3563 2963 3538 
L 2853 2969 
z
" transform="scale(0.015625)"/>
     <path id="DejaVuSans-Oblique-6c" d="M 1172 4863 
L 1747 4863 
L 800 0 
L 225 0 
L 1172 4863 
z
" transform="scale(0.015625)"/>
     <path id="DejaVuSans-Oblique-61" d="M 3438 1997 
L 3047 0 
L 2472 0 
L 2578 531 
Q 2325 219 2001 64 
Q 1678 -91 1281 -91 
Q 834 -91 548 182 
Q 263 456 263 884 
Q 263 1497 752 1853 
Q 1241 2209 2100 2209 
L 2900 2209 
L 2931 2363 
Q 2938 2388 2941 2417 
Q 2944 2447 2944 2509 
Q 2944 2788 2717 2942 
Q 2491 3097 2081 3097 
Q 1800 3097 1504 3025 
Q 1209 2953 897 2809 
L 997 3341 
Q 1322 3463 1633 3523 
Q 1944 3584 2234 3584 
Q 2853 3584 3176 3315 
Q 3500 3047 3500 2534 
Q 3500 2431 3484 2292 
Q 3469 2153 3438 1997 
z
M 2816 1759 
L 2241 1759 
Q 1534 1759 1195 1570 
Q 856 1381 856 984 
Q 856 709 1029 553 
Q 1203 397 1509 397 
Q 1978 397 2328 733 
Q 2678 1069 2791 1631 
L 2816 1759 
z
" transform="scale(0.015625)"/>
     <path id="DejaVuSans-Oblique-28" d="M 2731 4856 
Q 1903 3822 1495 2892 
Q 1088 1963 1088 1100 
Q 1088 606 1206 120 
Q 1325 -366 1563 -844 
L 1063 -844 
Q 775 -306 634 201 
Q 494 709 494 1197 
Q 494 2125 923 3036 
Q 1353 3947 2222 4856 
L 2731 4856 
z
" transform="scale(0.015625)"/>
     <path id="DejaVuSans-Oblique-6e" d="M 3566 2113 
L 3156 0 
L 2578 0 
L 2988 2091 
Q 3016 2238 3031 2350 
Q 3047 2463 3047 2528 
Q 3047 2791 2881 2937 
Q 2716 3084 2419 3084 
Q 1956 3084 1622 2776 
Q 1288 2469 1184 1941 
L 800 0 
L 225 0 
L 903 3500 
L 1478 3500 
L 1363 2950 
Q 1603 3253 1940 3418 
Q 2278 3584 2650 3584 
Q 3113 3584 3367 3334 
Q 3622 3084 3622 2631 
Q 3622 2519 3608 2391 
Q 3594 2263 3566 2113 
z
" transform="scale(0.015625)"/>
     <path id="DejaVuSans-Oblique-63" d="M 3431 3366 
L 3316 2797 
Q 3109 2947 2876 3022 
Q 2644 3097 2394 3097 
Q 2119 3097 1870 3000 
Q 1622 2903 1453 2725 
Q 1184 2453 1037 2087 
Q 891 1722 891 1331 
Q 891 859 1127 628 
Q 1363 397 1844 397 
Q 2081 397 2348 469 
Q 2616 541 2906 684 
L 2797 116 
Q 2547 13 2283 -39 
Q 2019 -91 1741 -91 
Q 1044 -91 669 257 
Q 294 606 294 1253 
Q 294 1797 489 2255 
Q 684 2713 1069 3078 
Q 1331 3328 1684 3456 
Q 2038 3584 2456 3584 
Q 2700 3584 2940 3529 
Q 3181 3475 3431 3366 
z
" transform="scale(0.015625)"/>
     <path id="DejaVuSans-Oblique-62" d="M 3169 2138 
Q 3169 2591 2961 2847 
Q 2753 3103 2388 3103 
Q 2122 3103 1889 2973 
Q 1656 2844 1484 2597 
Q 1303 2338 1198 1995 
Q 1094 1653 1094 1313 
Q 1094 881 1298 636 
Q 1503 391 1863 391 
Q 2134 391 2365 517 
Q 2597 644 2772 891 
Q 2950 1147 3059 1487 
Q 3169 1828 3169 2138 
z
M 1381 2969 
Q 1594 3256 1914 3420 
Q 2234 3584 2584 3584 
Q 3122 3584 3439 3221 
Q 3756 2859 3756 2241 
Q 3756 1734 3570 1259 
Q 3384 784 3041 416 
Q 2816 172 2522 40 
Q 2228 -91 1906 -91 
Q 1566 -91 1316 65 
Q 1066 222 909 531 
L 806 0 
L 231 0 
L 1178 4863 
L 1753 4863 
L 1381 2969 
z
" transform="scale(0.015625)"/>
     <path id="DejaVuSans-Oblique-68" d="M 3566 2113 
L 3156 0 
L 2578 0 
L 2988 2091 
Q 3016 2238 3031 2350 
Q 3047 2463 3047 2528 
Q 3047 2791 2881 2937 
Q 2716 3084 2419 3084 
Q 1956 3084 1617 2771 
Q 1278 2459 1178 1941 
L 800 0 
L 225 0 
L 1172 4863 
L 1747 4863 
L 1375 2950 
Q 1594 3244 1934 3414 
Q 2275 3584 2650 3584 
Q 3113 3584 3367 3334 
Q 3622 3084 3622 2631 
Q 3622 2519 3608 2391 
Q 3594 2263 3566 2113 
z
" transform="scale(0.015625)"/>
     <path id="DejaVuSans-Oblique-75" d="M 428 1388 
L 838 3500 
L 1416 3500 
L 1006 1409 
Q 975 1256 961 1147 
Q 947 1038 947 966 
Q 947 700 1109 554 
Q 1272 409 1569 409 
Q 2031 409 2368 721 
Q 2706 1034 2809 1563 
L 3194 3500 
L 3769 3500 
L 3091 0 
L 2516 0 
L 2631 550 
Q 2388 244 2052 76 
Q 1716 -91 1338 -91 
Q 878 -91 622 161 
Q 366 413 366 863 
Q 366 956 381 1097 
Q 397 1238 428 1388 
z
" transform="scale(0.015625)"/>
     <path id="DejaVuSans-Oblique-5f" d="M 3263 -1063 
L 3263 -1509 
L -63 -1509 
L -63 -1063 
L 3263 -1063 
z
" transform="scale(0.015625)"/>
     <path id="DejaVuSans-Oblique-6d" d="M 5747 2113 
L 5338 0 
L 4763 0 
L 5166 2094 
Q 5191 2228 5203 2325 
Q 5216 2422 5216 2491 
Q 5216 2772 5059 2928 
Q 4903 3084 4622 3084 
Q 4203 3084 3875 2770 
Q 3547 2456 3450 1953 
L 3066 0 
L 2491 0 
L 2900 2094 
Q 2925 2209 2937 2307 
Q 2950 2406 2950 2484 
Q 2950 2769 2794 2926 
Q 2638 3084 2363 3084 
Q 1938 3084 1609 2770 
Q 1281 2456 1184 1953 
L 800 0 
L 225 0 
L 909 3500 
L 1484 3500 
L 1375 2956 
Q 1609 3263 1923 3423 
Q 2238 3584 2597 3584 
Q 2978 3584 3223 3384 
Q 3469 3184 3519 2828 
Q 3781 3197 4126 3390 
Q 4472 3584 4856 3584 
Q 5306 3584 5551 3325 
Q 5797 3066 5797 2591 
Q 5797 2488 5784 2364 
Q 5772 2241 5747 2113 
z
" transform="scale(0.015625)"/>
     <path id="DejaVuSans-Oblique-41" d="M 2356 4666 
L 3072 4666 
L 3938 0 
L 3278 0 
L 3084 1197 
L 984 1197 
L 325 0 
L -341 0 
L 2356 4666 
z
M 2584 4044 
L 1275 1722 
L 2988 1722 
L 2584 4044 
z
" transform="scale(0.015625)"/>
     <path id="DejaVuSans-Oblique-44" d="M 1081 4666 
L 2438 4666 
Q 3519 4666 4070 4208 
Q 4622 3750 4622 2847 
Q 4622 2250 4412 1698 
Q 4203 1147 3834 769 
Q 3463 381 2891 190 
Q 2319 0 1538 0 
L 172 0 
L 1081 4666 
z
M 1613 4147 
L 909 519 
L 1734 519 
Q 2794 519 3375 1128 
Q 3956 1738 3956 2847 
Q 3956 3519 3581 3833 
Q 3206 4147 2406 4147 
L 1613 4147 
z
" transform="scale(0.015625)"/>
     <path id="DejaVuSans-Oblique-64" d="M 2675 525 
Q 2444 222 2128 65 
Q 1813 -91 1428 -91 
Q 903 -91 598 267 
Q 294 625 294 1247 
Q 294 1766 478 2236 
Q 663 2706 1013 3078 
Q 1244 3325 1534 3454 
Q 1825 3584 2144 3584 
Q 2481 3584 2739 3421 
Q 2997 3259 3138 2956 
L 3513 4863 
L 4091 4863 
L 3144 0 
L 2566 0 
L 2675 525 
z
M 891 1350 
Q 891 897 1095 644 
Q 1300 391 1663 391 
Q 1931 391 2161 520 
Q 2391 650 2566 903 
Q 2750 1166 2856 1509 
Q 2963 1853 2963 2188 
Q 2963 2622 2758 2865 
Q 2553 3109 2194 3109 
Q 1922 3109 1687 2981 
Q 1453 2853 1288 2613 
Q 1106 2353 998 2009 
Q 891 1666 891 1350 
z
" transform="scale(0.015625)"/>
     <path id="DejaVuSans-Oblique-69" d="M 1172 4863 
L 1747 4863 
L 1606 4134 
L 1031 4134 
L 1172 4863 
z
M 909 3500 
L 1484 3500 
L 800 0 
L 225 0 
L 909 3500 
z
" transform="scale(0.015625)"/>
     <path id="DejaVuSans-Oblique-29" d="M -397 -844 
Q 434 191 840 1120 
Q 1247 2050 1247 2913 
Q 1247 3406 1130 3892 
Q 1013 4378 775 4856 
L 1275 4856 
Q 1563 4316 1703 3812 
Q 1844 3309 1844 2822 
Q 1844 1891 1411 973 
Q 978 56 116 -844 
L -397 -844 
z
" transform="scale(0.015625)"/>
     <path id="DejaVuSans-Oblique-2e" d="M 525 794 
L 1184 794 
L 1031 0 
L 372 0 
L 525 794 
z
" transform="scale(0.015625)"/>
     <path id="DejaVuSans-Oblique-53" d="M 3859 4513 
L 3738 3897 
Q 3422 4066 3111 4152 
Q 2800 4238 2509 4238 
Q 1944 4238 1609 3991 
Q 1275 3744 1275 3334 
Q 1275 3109 1398 2989 
Q 1522 2869 2034 2731 
L 2413 2638 
Q 3053 2472 3303 2217 
Q 3553 1963 3553 1503 
Q 3553 797 2998 353 
Q 2444 -91 1538 -91 
Q 1166 -91 791 -17 
Q 416 56 38 206 
L 166 856 
Q 513 641 861 531 
Q 1209 422 1556 422 
Q 2147 422 2503 684 
Q 2859 947 2859 1369 
Q 2859 1650 2717 1795 
Q 2575 1941 2106 2059 
L 1728 2156 
Q 1081 2325 845 2545 
Q 609 2766 609 3163 
Q 609 3859 1145 4304 
Q 1681 4750 2541 4750 
Q 2875 4750 3203 4690 
Q 3531 4631 3859 4513 
z
" transform="scale(0.015625)"/>
     <path id="DejaVuSans-Oblique-7a" d="M 744 3500 
L 3475 3500 
L 3372 2975 
L 738 459 
L 2913 459 
L 2822 0 
L -19 0 
L 84 525 
L 2719 3041 
L 653 3041 
L 744 3500 
z
" transform="scale(0.015625)"/>
     <path id="DejaVuSans-Oblique-3b" d="M 563 794 
L 1222 794 
L 1113 256 
L 409 -744 
L 6 -744 
L 453 256 
L 563 794 
z
M 1050 3309 
L 1709 3309 
L 1556 2516 
L 897 2516 
L 1050 3309 
z
" transform="scale(0.015625)"/>
     <path id="DejaVuSans-Oblique-2d" d="M 391 2009 
L 2075 2009 
L 1978 1497 
L 288 1497 
L 391 2009 
z
" transform="scale(0.015625)"/>
    </defs>
    <use xlink:href="#DejaVuSans-Oblique-4e"/>
    <use xlink:href="#DejaVuSans-Oblique-6f" transform="translate(74.804688 0)"/>
    <use xlink:href="#DejaVuSans-Oblique-74" transform="translate(135.986328 0)"/>
    <use xlink:href="#DejaVuSans-Oblique-65" transform="translate(175.195312 0)"/>
    <use xlink:href="#DejaVuSans-Oblique-3a" transform="translate(236.71875 0)"/>
    <use xlink:href="#DejaVuSans-Oblique-20" transform="translate(270.410156 0)"/>
    <use xlink:href="#DejaVuSans-Oblique-74" transform="translate(302.197266 0)"/>
    <use xlink:href="#DejaVuSans-Oblique-79" transform="translate(341.40625 0)"/>
    <use xlink:href="#DejaVuSans-Oblique-70" transform="translate(400.585938 0)"/>
    <use xlink:href="#DejaVuSans-Oblique-65" transform="translate(464.0625 0)"/>
    <use xlink:href="#DejaVuSans-Oblique-73" transform="translate(525.585938 0)"/>
    <use xlink:href="#DejaVuSans-Oblique-20" transform="translate(577.685547 0)"/>
    <use xlink:href="#DejaVuSans-Oblique-6f" transform="translate(609.472656 0)"/>
    <use xlink:href="#DejaVuSans-Oblique-76" transform="translate(670.654297 0)"/>
    <use xlink:href="#DejaVuSans-Oblique-65" transform="translate(729.833984 0)"/>
    <use xlink:href="#DejaVuSans-Oblique-72" transform="translate(791.357422 0)"/>
    <use xlink:href="#DejaVuSans-Oblique-6c" transform="translate(832.470703 0)"/>
    <use xlink:href="#DejaVuSans-Oblique-61" transform="translate(860.253906 0)"/>
    <use xlink:href="#DejaVuSans-Oblique-70" transform="translate(921.533203 0)"/>
    <use xlink:href="#DejaVuSans-Oblique-20" transform="translate(985.009766 0)"/>
    <use xlink:href="#DejaVuSans-Oblique-28" transform="translate(1016.796875 0)"/>
    <use xlink:href="#DejaVuSans-Oblique-61" transform="translate(1055.810547 0)"/>
    <use xlink:href="#DejaVuSans-Oblique-6e" transform="translate(1117.089844 0)"/>
    <use xlink:href="#DejaVuSans-Oblique-20" transform="translate(1180.46875 0)"/>
    <use xlink:href="#DejaVuSans-Oblique-65" transform="translate(1212.255859 0)"/>
    <use xlink:href="#DejaVuSans-Oblique-6e" transform="translate(1273.779297 0)"/>
    <use xlink:href="#DejaVuSans-Oblique-74" transform="translate(1337.158203 0)"/>
    <use xlink:href="#DejaVuSans-Oblique-72" transform="translate(1376.367188 0)"/>
    <use xlink:href="#DejaVuSans-Oblique-79" transform="translate(1417.480469 0)"/>
    <use xlink:href="#DejaVuSans-Oblique-20" transform="translate(1476.660156 0)"/>
    <use xlink:href="#DejaVuSans-Oblique-63" transform="translate(1508.447266 0)"/>
    <use xlink:href="#DejaVuSans-Oblique-61" transform="translate(1563.427734 0)"/>
    <use xlink:href="#DejaVuSans-Oblique-6e" transform="translate(1624.707031 0)"/>
    <use xlink:href="#DejaVuSans-Oblique-20" transform="translate(1688.085938 0)"/>
    <use xlink:href="#DejaVuSans-Oblique-62" transform="translate(1719.873047 0)"/>
    <use xlink:href="#DejaVuSans-Oblique-65" transform="translate(1783.349609 0)"/>
    <use xlink:href="#DejaVuSans-Oblique-20" transform="translate(1844.873047 0)"/>
    <use xlink:href="#DejaVuSans-Oblique-62" transform="translate(1876.660156 0)"/>
    <use xlink:href="#DejaVuSans-Oblique-6f" transform="translate(1940.136719 0)"/>
    <use xlink:href="#DejaVuSans-Oblique-74" transform="translate(2001.318359 0)"/>
    <use xlink:href="#DejaVuSans-Oblique-68" transform="translate(2040.527344 0)"/>
    <use xlink:href="#DejaVuSans-Oblique-20" transform="translate(2103.90625 0)"/>
    <use xlink:href="#DejaVuSans-Oblique-6e" transform="translate(2135.693359 0)"/>
    <use xlink:href="#DejaVuSans-Oblique-6f" transform="translate(2199.072266 0)"/>
    <use xlink:href="#DejaVuSans-Oblique-75" transform="translate(2260.253906 0)"/>
    <use xlink:href="#DejaVuSans-Oblique-6e" transform="translate(2323.632812 0)"/>
    <use xlink:href="#DejaVuSans-Oblique-5f" transform="translate(2387.011719 0)"/>
    <use xlink:href="#DejaVuSans-Oblique-6d" transform="translate(2437.011719 0)"/>
    <use xlink:href="#DejaVuSans-Oblique-20" transform="translate(2534.423828 0)"/>
    <use xlink:href="#DejaVuSans-Oblique-41" transform="translate(2566.210938 0)"/>
    <use xlink:href="#DejaVuSans-Oblique-4e" transform="translate(2634.619141 0)"/>
    <use xlink:href="#DejaVuSans-Oblique-44" transform="translate(2709.423828 0)"/>
    <use xlink:href="#DejaVuSans-Oblique-20" transform="translate(2786.425781 0)"/>
    <use xlink:href="#DejaVuSans-Oblique-76" transform="translate(2818.212891 0)"/>
    <use xlink:href="#DejaVuSans-Oblique-65" transform="translate(2877.392578 0)"/>
    <use xlink:href="#DejaVuSans-Oblique-64" transform="translate(2938.916016 0)"/>
    <use xlink:href="#DejaVuSans-Oblique-69" transform="translate(3002.392578 0)"/>
    <use xlink:href="#DejaVuSans-Oblique-63" transform="translate(3030.175781 0)"/>
    <use xlink:href="#DejaVuSans-Oblique-5f" transform="translate(3085.15625 0)"/>
    <use xlink:href="#DejaVuSans-Oblique-61" transform="translate(3135.15625 0)"/>
    <use xlink:href="#DejaVuSans-Oblique-63" transform="translate(3196.435547 0)"/>
    <use xlink:href="#DejaVuSans-Oblique-63" transform="translate(3251.416016 0)"/>
    <use xlink:href="#DejaVuSans-Oblique-65" transform="translate(3306.396484 0)"/>
    <use xlink:href="#DejaVuSans-Oblique-6e" transform="translate(3367.919922 0)"/>
    <use xlink:href="#DejaVuSans-Oblique-74" transform="translate(3431.298828 0)"/>
    <use xlink:href="#DejaVuSans-Oblique-65" transform="translate(3470.507812 0)"/>
    <use xlink:href="#DejaVuSans-Oblique-64" transform="translate(3532.03125 0)"/>
    <use xlink:href="#DejaVuSans-Oblique-29" transform="translate(3595.507812 0)"/>
    <use xlink:href="#DejaVuSans-Oblique-2e" transform="translate(3634.521484 0)"/>
    <use xlink:href="#DejaVuSans-Oblique-20" transform="translate(3666.308594 0)"/>
    <use xlink:href="#DejaVuSans-Oblique-53" transform="translate(3698.095703 0)"/>
    <use xlink:href="#DejaVuSans-Oblique-69" transform="translate(3761.572266 0)"/>
    <use xlink:href="#DejaVuSans-Oblique-7a" transform="translate(3789.355469 0)"/>
    <use xlink:href="#DejaVuSans-Oblique-65" transform="translate(3841.845703 0)"/>
    <use xlink:href="#DejaVuSans-Oblique-73" transform="translate(3903.369141 0)"/>
    <use xlink:href="#DejaVuSans-Oblique-20" transform="translate(3955.46875 0)"/>
    <use xlink:href="#DejaVuSans-Oblique-61" transform="translate(3987.255859 0)"/>
    <use xlink:href="#DejaVuSans-Oblique-72" transform="translate(4048.535156 0)"/>
    <use xlink:href="#DejaVuSans-Oblique-65" transform="translate(4089.648438 0)"/>
    <use xlink:href="#DejaVuSans-Oblique-20" transform="translate(4151.171875 0)"/>
    <use xlink:href="#DejaVuSans-Oblique-6d" transform="translate(4182.958984 0)"/>
    <use xlink:href="#DejaVuSans-Oblique-65" transform="translate(4280.371094 0)"/>
    <use xlink:href="#DejaVuSans-Oblique-6d" transform="translate(4341.894531 0)"/>
    <use xlink:href="#DejaVuSans-Oblique-62" transform="translate(4439.306641 0)"/>
    <use xlink:href="#DejaVuSans-Oblique-65" transform="translate(4502.783203 0)"/>
    <use xlink:href="#DejaVuSans-Oblique-72" transform="translate(4564.306641 0)"/>
    <use xlink:href="#DejaVuSans-Oblique-73" transform="translate(4605.419922 0)"/>
    <use xlink:href="#DejaVuSans-Oblique-68" transform="translate(4657.519531 0)"/>
    <use xlink:href="#DejaVuSans-Oblique-69" transform="translate(4720.898438 0)"/>
    <use xlink:href="#DejaVuSans-Oblique-70" transform="translate(4748.681641 0)"/>
    <use xlink:href="#DejaVuSans-Oblique-20" transform="translate(4812.158203 0)"/>
    <use xlink:href="#DejaVuSans-Oblique-63" transform="translate(4843.945312 0)"/>
    <use xlink:href="#DejaVuSans-Oblique-6f" transform="translate(4898.925781 0)"/>
    <use xlink:href="#DejaVuSans-Oblique-75" transform="translate(4960.107422 0)"/>
    <use xlink:href="#DejaVuSans-Oblique-6e" transform="translate(5023.486328 0)"/>
    <use xlink:href="#DejaVuSans-Oblique-74" transform="translate(5086.865234 0)"/>
    <use xlink:href="#DejaVuSans-Oblique-73" transform="translate(5126.074219 0)"/>
    <use xlink:href="#DejaVuSans-Oblique-3b" transform="translate(5178.173828 0)"/>
    <use xlink:href="#DejaVuSans-Oblique-20" transform="translate(5211.865234 0)"/>
    <use xlink:href="#DejaVuSans-Oblique-74" transform="translate(5243.652344 0)"/>
    <use xlink:href="#DejaVuSans-Oblique-6f" transform="translate(5282.861328 0)"/>
    <use xlink:href="#DejaVuSans-Oblique-74" transform="translate(5344.042969 0)"/>
    <use xlink:href="#DejaVuSans-Oblique-61" transform="translate(5383.251953 0)"/>
    <use xlink:href="#DejaVuSans-Oblique-6c" transform="translate(5444.53125 0)"/>
    <use xlink:href="#DejaVuSans-Oblique-20" transform="translate(5472.314453 0)"/>
    <use xlink:href="#DejaVuSans-Oblique-69" transform="translate(5504.101562 0)"/>
    <use xlink:href="#DejaVuSans-Oblique-73" transform="translate(5531.884766 0)"/>
    <use xlink:href="#DejaVuSans-Oblique-20" transform="translate(5583.984375 0)"/>
    <use xlink:href="#DejaVuSans-Oblique-6e" transform="translate(5615.771484 0)"/>
    <use xlink:href="#DejaVuSans-Oblique-6f" transform="translate(5679.150391 0)"/>
    <use xlink:href="#DejaVuSans-Oblique-6e" transform="translate(5740.332031 0)"/>
    <use xlink:href="#DejaVuSans-Oblique-2d" transform="translate(5803.710938 0)"/>
    <use xlink:href="#DejaVuSans-Oblique-61" transform="translate(5839.794922 0)"/>
    <use xlink:href="#DejaVuSans-Oblique-64" transform="translate(5901.074219 0)"/>
    <use xlink:href="#DejaVuSans-Oblique-64" transform="translate(5964.550781 0)"/>
    <use xlink:href="#DejaVuSans-Oblique-69" transform="translate(6028.027344 0)"/>
    <use xlink:href="#DejaVuSans-Oblique-74" transform="translate(6055.810547 0)"/>
    <use xlink:href="#DejaVuSans-Oblique-69" transform="translate(6095.019531 0)"/>
    <use xlink:href="#DejaVuSans-Oblique-76" transform="translate(6122.802734 0)"/>
    <use xlink:href="#DejaVuSans-Oblique-65" transform="translate(6181.982422 0)"/>
    <use xlink:href="#DejaVuSans-Oblique-2e" transform="translate(6243.505859 0)"/>
   </g>
  </g>
  <g id="text_14">
   <!-- Source: CDSL mw.txt 2026-05-23 · CC-BY-SA-4.0 · build 05aff86 -->
   <g style="fill: #666666" transform="translate(305.781562 316.992187) scale(0.06 -0.06)">
    <defs>
     <path id="DejaVuSans-Oblique-43" d="M 4447 4306 
L 4319 3641 
Q 4019 3944 3683 4091 
Q 3347 4238 2956 4238 
Q 2422 4238 2017 3981 
Q 1613 3725 1319 3200 
Q 1131 2863 1032 2486 
Q 934 2109 934 1728 
Q 934 1091 1264 756 
Q 1594 422 2222 422 
Q 2656 422 3056 561 
Q 3456 700 3834 978 
L 3688 231 
Q 3316 72 2936 -9 
Q 2556 -91 2175 -91 
Q 1278 -91 773 396 
Q 269 884 269 1753 
Q 269 2309 461 2846 
Q 653 3384 1013 3828 
Q 1394 4300 1883 4525 
Q 2372 4750 3022 4750 
Q 3422 4750 3780 4639 
Q 4138 4528 4447 4306 
z
" transform="scale(0.015625)"/>
     <path id="DejaVuSans-Oblique-4c" d="M 1075 4666 
L 1709 4666 
L 909 525 
L 3181 525 
L 3078 0 
L 172 0 
L 1075 4666 
z
" transform="scale(0.015625)"/>
     <path id="DejaVuSans-Oblique-77" d="M 544 3500 
L 1113 3500 
L 1259 684 
L 2566 3500 
L 3231 3500 
L 3425 684 
L 4666 3500 
L 5241 3500 
L 3641 0 
L 2969 0 
L 2797 2900 
L 1459 0 
L 781 0 
L 544 3500 
z
" transform="scale(0.015625)"/>
     <path id="DejaVuSans-Oblique-78" d="M 3841 3500 
L 2234 1784 
L 3219 0 
L 2559 0 
L 1819 1388 
L 531 0 
L -166 0 
L 1556 1844 
L 641 3500 
L 1300 3500 
L 1972 2234 
L 3144 3500 
L 3841 3500 
z
" transform="scale(0.015625)"/>
     <path id="DejaVuSans-Oblique-32" d="M 2950 2253 
L 934 525 
L 3163 525 
L 3053 0 
L 25 0 
L 128 531 
L 2234 2338 
Q 2656 2703 2832 2979 
Q 3009 3256 3009 3547 
Q 3009 3850 2796 4040 
Q 2584 4231 2241 4231 
Q 1944 4231 1581 4125 
Q 1219 4019 806 3816 
L 922 4441 
Q 1309 4594 1662 4672 
Q 2016 4750 2316 4750 
Q 2928 4750 3301 4425 
Q 3675 4100 3675 3572 
Q 3675 3216 3497 2892 
Q 3319 2569 2950 2253 
z
" transform="scale(0.015625)"/>
     <path id="DejaVuSans-Oblique-30" d="M 2444 4750 
Q 3078 4750 3414 4328 
Q 3750 3906 3750 3116 
Q 3750 2516 3592 1923 
Q 3434 1331 3150 863 
Q 2859 394 2467 151 
Q 2075 -91 1600 -91 
Q 988 -91 653 334 
Q 319 759 319 1544 
Q 319 2138 480 2733 
Q 641 3328 928 3794 
Q 1216 4263 1602 4506 
Q 1988 4750 2444 4750 
z
M 2406 4250 
Q 2169 4250 1955 4123 
Q 1741 3997 1569 3750 
Q 1281 3338 1111 2720 
Q 941 2103 941 1453 
Q 941 938 1123 673 
Q 1306 409 1663 409 
Q 1913 409 2125 536 
Q 2338 663 2509 909 
Q 2794 1319 2961 1936 
Q 3128 2553 3128 3206 
Q 3128 3722 2945 3986 
Q 2763 4250 2406 4250 
z
" transform="scale(0.015625)"/>
     <path id="DejaVuSans-Oblique-36" d="M 2938 1728 
Q 2938 2125 2734 2354 
Q 2531 2584 2181 2584 
Q 1697 2584 1367 2211 
Q 1038 1838 1038 1288 
Q 1038 875 1239 642 
Q 1441 409 1797 409 
Q 2284 409 2611 792 
Q 2938 1175 2938 1728 
z
M 3788 4556 
L 3681 3981 
Q 3500 4100 3265 4162 
Q 3031 4225 2766 4225 
Q 2119 4225 1726 3819 
Q 1334 3413 1141 2547 
Q 1369 2813 1670 2948 
Q 1972 3084 2322 3084 
Q 2894 3084 3233 2754 
Q 3572 2425 3572 1869 
Q 3572 1413 3405 1020 
Q 3238 628 2919 331 
Q 2700 128 2409 18 
Q 2119 -91 1791 -91 
Q 1147 -91 775 318 
Q 403 728 403 1441 
Q 403 2103 573 2717 
Q 744 3331 1050 3781 
Q 1372 4256 1830 4503 
Q 2288 4750 2841 4750 
Q 3084 4750 3321 4701 
Q 3559 4653 3788 4556 
z
" transform="scale(0.015625)"/>
     <path id="DejaVuSans-Oblique-35" d="M 3719 4666 
L 3622 4141 
L 1691 4141 
L 1466 2988 
Q 1609 3034 1757 3056 
Q 1906 3078 2059 3078 
Q 2706 3078 3081 2731 
Q 3456 2384 3456 1791 
Q 3456 1375 3264 994 
Q 3072 613 2719 325 
Q 2469 125 2108 17 
Q 1747 -91 1319 -91 
Q 1038 -91 744 -41 
Q 450 9 128 109 
L 244 697 
Q 531 556 820 486 
Q 1109 416 1403 416 
Q 2013 416 2411 781 
Q 2809 1147 2809 1697 
Q 2809 2103 2548 2328 
Q 2288 2553 1819 2553 
Q 1572 2553 1305 2495 
Q 1038 2438 756 2322 
L 1209 4666 
L 3719 4666 
z
" transform="scale(0.015625)"/>
     <path id="DejaVuSans-Oblique-33" d="M 1013 4550 
Q 1356 4650 1679 4700 
Q 2003 4750 2316 4750 
Q 2934 4750 3296 4475 
Q 3659 4200 3659 3738 
Q 3659 3284 3373 2959 
Q 3088 2634 2584 2516 
Q 2978 2403 3162 2165 
Q 3347 1928 3347 1538 
Q 3347 1163 3167 834 
Q 2988 506 2650 269 
Q 2394 88 2037 -1 
Q 1681 -91 1216 -91 
Q 922 -91 622 -33 
Q 322 25 13 141 
L 128 738 
Q 422 575 720 495 
Q 1019 416 1331 416 
Q 1947 416 2330 733 
Q 2713 1050 2713 1556 
Q 2713 1881 2469 2057 
Q 2225 2234 1772 2234 
L 1228 2234 
L 1325 2747 
L 1900 2747 
Q 2419 2747 2717 2984 
Q 3016 3222 3016 3628 
Q 3016 3922 2797 4083 
Q 2578 4244 2181 4244 
Q 1881 4244 1567 4180 
Q 1253 4116 916 3988 
L 1013 4550 
z
" transform="scale(0.015625)"/>
     <path id="DejaVuSans-Oblique-b7" d="M 884 2619 
L 1544 2619 
L 1388 1825 
L 728 1825 
L 884 2619 
z
" transform="scale(0.015625)"/>
     <path id="DejaVuSans-Oblique-42" d="M 1081 4666 
L 2694 4666 
Q 3350 4666 3675 4422 
Q 4000 4178 4000 3688 
Q 4000 3238 3720 2911 
Q 3441 2584 2988 2516 
Q 3375 2428 3569 2181 
Q 3763 1934 3763 1522 
Q 3763 819 3242 409 
Q 2722 0 1819 0 
L 172 0 
L 1081 4666 
z
M 1234 2228 
L 903 519 
L 1919 519 
Q 2491 519 2800 781 
Q 3109 1044 3109 1522 
Q 3109 1891 2904 2059 
Q 2700 2228 2247 2228 
L 1234 2228 
z
M 1606 4147 
L 1331 2741 
L 2272 2741 
Q 2775 2741 3058 2959 
Q 3341 3178 3341 3566 
Q 3341 3869 3150 4008 
Q 2959 4147 2541 4147 
L 1606 4147 
z
" transform="scale(0.015625)"/>
     <path id="DejaVuSans-Oblique-59" d="M 403 4666 
L 1081 4666 
L 1953 2747 
L 3616 4666 
L 4325 4666 
L 2209 2222 
L 1778 0 
L 1147 0 
L 1575 2222 
L 403 4666 
z
" transform="scale(0.015625)"/>
     <path id="DejaVuSans-Oblique-34" d="M 2753 4666 
L 3547 4666 
L 2950 1625 
L 3616 1625 
L 3513 1100 
L 2847 1100 
L 2638 0 
L 2009 0 
L 2222 1100 
L 116 1100 
L 238 1709 
L 2753 4666 
z
M 2809 4116 
L 728 1625 
L 2322 1625 
L 2809 4116 
z
" transform="scale(0.015625)"/>
     <path id="DejaVuSans-Oblique-66" d="M 3059 4863 
L 2969 4384 
L 2419 4384 
Q 2106 4384 1964 4261 
Q 1822 4138 1753 3809 
L 1691 3500 
L 2638 3500 
L 2553 3053 
L 1606 3053 
L 1013 0 
L 434 0 
L 1031 3053 
L 481 3053 
L 563 3500 
L 1113 3500 
L 1159 3744 
Q 1278 4363 1576 4613 
Q 1875 4863 2516 4863 
L 3059 4863 
z
" transform="scale(0.015625)"/>
     <path id="DejaVuSans-Oblique-38" d="M 2847 1416 
Q 2847 1769 2600 1992 
Q 2353 2216 1953 2216 
Q 1466 2216 1148 1923 
Q 831 1631 831 1184 
Q 831 828 1073 618 
Q 1316 409 1728 409 
Q 2219 409 2533 693 
Q 2847 978 2847 1416 
z
M 3169 3591 
Q 3169 3888 2950 4069 
Q 2731 4250 2369 4250 
Q 1941 4250 1664 4009 
Q 1388 3769 1388 3406 
Q 1388 3094 1605 2903 
Q 1822 2713 2181 2713 
Q 2613 2713 2891 2961 
Q 3169 3209 3169 3591 
z
M 2741 2456 
Q 3094 2322 3281 2050 
Q 3469 1778 3469 1394 
Q 3469 747 2969 328 
Q 2469 -91 1678 -91 
Q 1006 -91 609 239 
Q 213 569 213 1119 
Q 213 1619 553 2008 
Q 894 2397 1441 2503 
Q 1113 2616 941 2852 
Q 769 3088 769 3425 
Q 769 3991 1239 4370 
Q 1709 4750 2431 4750 
Q 3034 4750 3414 4442 
Q 3794 4134 3794 3659 
Q 3794 3247 3511 2923 
Q 3228 2600 2741 2456 
z
" transform="scale(0.015625)"/>
    </defs>
    <use xlink:href="#DejaVuSans-Oblique-53"/>
    <use xlink:href="#DejaVuSans-Oblique-6f" transform="translate(63.476562 0)"/>
    <use xlink:href="#DejaVuSans-Oblique-75" transform="translate(124.658203 0)"/>
    <use xlink:href="#DejaVuSans-Oblique-72" transform="translate(188.037109 0)"/>
    <use xlink:href="#DejaVuSans-Oblique-63" transform="translate(229.150391 0)"/>
    <use xlink:href="#DejaVuSans-Oblique-65" transform="translate(284.130859 0)"/>
    <use xlink:href="#DejaVuSans-Oblique-3a" transform="translate(345.654297 0)"/>
    <use xlink:href="#DejaVuSans-Oblique-20" transform="translate(379.345703 0)"/>
    <use xlink:href="#DejaVuSans-Oblique-43" transform="translate(411.132812 0)"/>
    <use xlink:href="#DejaVuSans-Oblique-44" transform="translate(480.957031 0)"/>
    <use xlink:href="#DejaVuSans-Oblique-53" transform="translate(557.958984 0)"/>
    <use xlink:href="#DejaVuSans-Oblique-4c" transform="translate(621.435547 0)"/>
    <use xlink:href="#DejaVuSans-Oblique-20" transform="translate(677.148438 0)"/>
    <use xlink:href="#DejaVuSans-Oblique-6d" transform="translate(708.935547 0)"/>
    <use xlink:href="#DejaVuSans-Oblique-77" transform="translate(806.347656 0)"/>
    <use xlink:href="#DejaVuSans-Oblique-2e" transform="translate(881.759766 0)"/>
    <use xlink:href="#DejaVuSans-Oblique-74" transform="translate(913.546875 0)"/>
    <use xlink:href="#DejaVuSans-Oblique-78" transform="translate(952.755859 0)"/>
    <use xlink:href="#DejaVuSans-Oblique-74" transform="translate(1011.935547 0)"/>
    <use xlink:href="#DejaVuSans-Oblique-20" transform="translate(1051.144531 0)"/>
    <use xlink:href="#DejaVuSans-Oblique-32" transform="translate(1082.931641 0)"/>
    <use xlink:href="#DejaVuSans-Oblique-30" transform="translate(1146.554688 0)"/>
    <use xlink:href="#DejaVuSans-Oblique-32" transform="translate(1210.177734 0)"/>
    <use xlink:href="#DejaVuSans-Oblique-36" transform="translate(1273.800781 0)"/>
    <use xlink:href="#DejaVuSans-Oblique-2d" transform="translate(1337.423828 0)"/>
    <use xlink:href="#DejaVuSans-Oblique-30" transform="translate(1373.507812 0)"/>
    <use xlink:href="#DejaVuSans-Oblique-35" transform="translate(1437.130859 0)"/>
    <use xlink:href="#DejaVuSans-Oblique-2d" transform="translate(1500.753906 0)"/>
    <use xlink:href="#DejaVuSans-Oblique-32" transform="translate(1536.837891 0)"/>
    <use xlink:href="#DejaVuSans-Oblique-33" transform="translate(1600.460938 0)"/>
    <use xlink:href="#DejaVuSans-Oblique-20" transform="translate(1664.083984 0)"/>
    <use xlink:href="#DejaVuSans-Oblique-b7" transform="translate(1695.871094 0)"/>
    <use xlink:href="#DejaVuSans-Oblique-20" transform="translate(1727.658203 0)"/>
    <use xlink:href="#DejaVuSans-Oblique-43" transform="translate(1759.445312 0)"/>
    <use xlink:href="#DejaVuSans-Oblique-43" transform="translate(1829.269531 0)"/>
    <use xlink:href="#DejaVuSans-Oblique-2d" transform="translate(1899.09375 0)"/>
    <use xlink:href="#DejaVuSans-Oblique-42" transform="translate(1935.177734 0)"/>
    <use xlink:href="#DejaVuSans-Oblique-59" transform="translate(2002.03125 0)"/>
    <use xlink:href="#DejaVuSans-Oblique-2d" transform="translate(2049.365234 0)"/>
    <use xlink:href="#DejaVuSans-Oblique-53" transform="translate(2085.449219 0)"/>
    <use xlink:href="#DejaVuSans-Oblique-41" transform="translate(2148.925781 0)"/>
    <use xlink:href="#DejaVuSans-Oblique-2d" transform="translate(2217.333984 0)"/>
    <use xlink:href="#DejaVuSans-Oblique-34" transform="translate(2253.417969 0)"/>
    <use xlink:href="#DejaVuSans-Oblique-2e" transform="translate(2317.041016 0)"/>
    <use xlink:href="#DejaVuSans-Oblique-30" transform="translate(2348.828125 0)"/>
    <use xlink:href="#DejaVuSans-Oblique-20" transform="translate(2412.451172 0)"/>
    <use xlink:href="#DejaVuSans-Oblique-b7" transform="translate(2444.238281 0)"/>
    <use xlink:href="#DejaVuSans-Oblique-20" transform="translate(2476.025391 0)"/>
    <use xlink:href="#DejaVuSans-Oblique-62" transform="translate(2507.8125 0)"/>
    <use xlink:href="#DejaVuSans-Oblique-75" transform="translate(2571.289062 0)"/>
    <use xlink:href="#DejaVuSans-Oblique-69" transform="translate(2634.667969 0)"/>
    <use xlink:href="#DejaVuSans-Oblique-6c" transform="translate(2662.451172 0)"/>
    <use xlink:href="#DejaVuSans-Oblique-64" transform="translate(2690.234375 0)"/>
    <use xlink:href="#DejaVuSans-Oblique-20" transform="translate(2753.710938 0)"/>
    <use xlink:href="#DejaVuSans-Oblique-30" transform="translate(2785.498047 0)"/>
    <use xlink:href="#DejaVuSans-Oblique-35" transform="translate(2849.121094 0)"/>
    <use xlink:href="#DejaVuSans-Oblique-61" transform="translate(2912.744141 0)"/>
    <use xlink:href="#DejaVuSans-Oblique-66" transform="translate(2974.023438 0)"/>
    <use xlink:href="#DejaVuSans-Oblique-66" transform="translate(3009.228516 0)"/>
    <use xlink:href="#DejaVuSans-Oblique-38" transform="translate(3044.433594 0)"/>
    <use xlink:href="#DejaVuSans-Oblique-36" transform="translate(3108.056641 0)"/>
   </g>
  </g>
 </g>
 <defs>
  <clipPath id="pf0ae04d600">
   <rect x="7.92" y="55.8" width="469.096435" height="245.16"/>
  </clipPath>
 </defs>
</svg>
